<svg width="260" height="80" viewBox="0 0 260 80" fill="none" xmlns="http://www.w3.org/2000/svg">
<path d="M2 78H38.892V37.5584L28.3741 44.5606V65.1757H65.5278V22.75H40.4112V3L2 22.75V78Z" stroke="#FF833B" stroke-width="3" stroke-miterlimit="10"/>
<path d="M94.4682 8.736V2.8H111.996V8.736H94.4682ZM94.4682 24.304V18.536H111.436V24.304H94.4682ZM90.3802 2.8H96.8762V42H90.3802V2.8ZM120.35 31.92L121.582 26.32H139.782L141.07 31.92H120.35ZM130.598 13.888L124.438 28.28L124.326 29.736L118.894 42H111.446L130.598 0.615999L149.75 42H142.302L136.982 30.072L136.814 28.448L130.598 13.888ZM162.374 23.296H169.542L182.814 42H174.862L162.374 23.296ZM154.31 2.8H160.918V42H154.31V2.8ZM158.23 8.512V2.8H166.406C169.243 2.8 171.707 3.304 173.798 4.312C175.926 5.32 177.569 6.73867 178.726 8.568C179.883 10.36 180.462 12.488 180.462 14.952C180.462 17.416 179.883 19.5627 178.726 21.392C177.569 23.2213 175.926 24.64 173.798 25.648C171.707 26.656 169.243 27.16 166.406 27.16H158.23V21.728H166.126C167.619 21.728 168.926 21.4667 170.046 20.944C171.203 20.4213 172.099 19.6747 172.734 18.704C173.369 17.696 173.686 16.5013 173.686 15.12C173.686 13.7013 173.369 12.5067 172.734 11.536C172.099 10.5653 171.203 9.81866 170.046 9.296C168.926 8.77333 167.619 8.512 166.126 8.512H158.23ZM191.703 42V36.176H211.471V42H191.703ZM191.703 8.624V2.8H211.471V8.624H191.703ZM191.703 23.856V18.144H210.351V23.856H191.703ZM187.615 2.8H194.111V42H187.615V2.8ZM248.223 2.8H254.719V43.96L226.103 15.68V42H219.607V0.839999L248.223 29.12V2.8Z" fill="white"/>
<path d="M90.1553 71.91L91.0253 69.59H100.015L100.885 71.91H90.1553ZM95.4623 62.282L92.0403 70.344L91.8083 70.866L88.7923 78H86.0373L95.4623 56.685L104.887 78H102.132L99.1743 71.04L98.9423 70.46L95.4623 62.282ZM112.142 67.995H114.897L122.147 78H119.102L112.142 67.995ZM108.517 57.7H110.982V78H108.517V57.7ZM109.88 59.875V57.7H114.027C115.342 57.7 116.511 57.9513 117.536 58.454C118.58 58.9373 119.402 59.6333 120.001 60.542C120.62 61.4507 120.929 62.5333 120.929 63.79C120.929 65.0273 120.62 66.11 120.001 67.038C119.402 67.9467 118.58 68.6523 117.536 69.155C116.511 69.6383 115.342 69.88 114.027 69.88H109.88V67.705H114.027C114.897 67.705 115.661 67.5503 116.318 67.241C116.995 66.9317 117.517 66.487 117.884 65.907C118.271 65.327 118.464 64.6213 118.464 63.79C118.464 62.9587 118.271 62.253 117.884 61.673C117.517 61.093 116.995 60.6483 116.318 60.339C115.661 60.0297 114.897 59.875 114.027 59.875H109.88ZM127.354 67.85C127.354 69.416 127.702 70.7983 128.398 71.997C129.114 73.1957 130.042 74.1333 131.182 74.81C132.323 75.4867 133.56 75.825 134.894 75.825C135.861 75.825 136.741 75.6993 137.533 75.448C138.345 75.1967 139.08 74.8487 139.737 74.404C140.395 73.94 140.955 73.4083 141.419 72.809V76.057C140.569 76.811 139.641 77.3717 138.635 77.739C137.63 78.1063 136.383 78.29 134.894 78.29C133.483 78.29 132.159 78.0387 130.921 77.536C129.703 77.014 128.63 76.289 127.702 75.361C126.774 74.4137 126.049 73.302 125.527 72.026C125.005 70.75 124.744 69.358 124.744 67.85C124.744 66.342 125.005 64.95 125.527 63.674C126.049 62.398 126.774 61.296 127.702 60.368C128.63 59.4207 129.703 58.6957 130.921 58.193C132.159 57.671 133.483 57.41 134.894 57.41C136.383 57.41 137.63 57.5937 138.635 57.961C139.641 58.3283 140.569 58.889 141.419 59.643V62.891C140.955 62.2917 140.395 61.7697 139.737 61.325C139.08 60.861 138.345 60.5033 137.533 60.252C136.741 60.0007 135.861 59.875 134.894 59.875C133.56 59.875 132.323 60.2133 131.182 60.89C130.042 61.5667 129.114 62.5043 128.398 63.703C127.702 64.8823 127.354 66.2647 127.354 67.85ZM148.28 68.14V65.82H162.2V68.14H148.28ZM160.547 57.7H163.012V78H160.547V57.7ZM146.917 57.7H149.382V78H146.917V57.7ZM168.807 57.7H171.272V78H168.807V57.7ZM175.046 60.02V57.7H187.951V60.02H182.731V78H180.266V60.02H175.046ZM193.079 78V75.68H203.316V78H193.079ZM193.079 60.02V57.7H203.316V60.02H193.079ZM193.079 68.14V65.82H202.736V68.14H193.079ZM191.716 57.7H194.181V78H191.716V57.7ZM210.271 67.85C210.271 69.416 210.619 70.7983 211.315 71.997C212.03 73.1957 212.958 74.1333 214.099 74.81C215.239 75.4867 216.477 75.825 217.811 75.825C218.777 75.825 219.657 75.6993 220.45 75.448C221.262 75.1967 221.996 74.8487 222.654 74.404C223.311 73.94 223.872 73.4083 224.336 72.809V76.057C223.485 76.811 222.557 77.3717 221.552 77.739C220.546 78.1063 219.299 78.29 217.811 78.29C216.399 78.29 215.075 78.0387 213.838 77.536C212.62 77.014 211.547 76.289 210.619 75.361C209.691 74.4137 208.966 73.302 208.444 72.026C207.922 70.75 207.661 69.358 207.661 67.85C207.661 66.342 207.922 64.95 208.444 63.674C208.966 62.398 209.691 61.296 210.619 60.368C211.547 59.4207 212.62 58.6957 213.838 58.193C215.075 57.671 216.399 57.41 217.811 57.41C219.299 57.41 220.546 57.5937 221.552 57.961C222.557 58.3283 223.485 58.889 224.336 59.643V62.891C223.872 62.2917 223.311 61.7697 222.654 61.325C221.996 60.861 221.262 60.5033 220.45 60.252C219.657 60.0007 218.777 59.875 217.811 59.875C216.477 59.875 215.239 60.2133 214.099 60.89C212.958 61.5667 212.03 62.5043 211.315 63.703C210.619 64.8823 210.271 66.2647 210.271 67.85ZM226.925 60.02V57.7H239.83V60.02H234.61V78H232.145V60.02H226.925ZM244.35 71.852C244.814 72.664 245.297 73.3793 245.8 73.998C246.322 74.6167 246.902 75.1 247.54 75.448C248.178 75.796 248.903 75.97 249.715 75.97C250.797 75.97 251.667 75.6703 252.325 75.071C252.982 74.4717 253.311 73.708 253.311 72.78C253.311 71.8713 253.098 71.1463 252.673 70.605C252.247 70.0637 251.687 69.6287 250.991 69.3C250.314 68.952 249.589 68.6427 248.816 68.372C248.313 68.198 247.752 67.9757 247.134 67.705C246.515 67.415 245.925 67.0573 245.365 66.632C244.804 66.1873 244.34 65.646 243.973 65.008C243.625 64.37 243.451 63.587 243.451 62.659C243.451 61.6537 243.702 60.7547 244.205 59.962C244.707 59.1693 245.403 58.5507 246.293 58.106C247.182 57.642 248.197 57.41 249.338 57.41C250.44 57.41 251.397 57.6227 252.209 58.048C253.04 58.454 253.746 58.9857 254.326 59.643C254.906 60.281 255.36 60.9577 255.689 61.673L253.572 62.891C253.32 62.3883 253.001 61.8953 252.615 61.412C252.228 60.9287 251.754 60.5323 251.194 60.223C250.652 59.9137 249.985 59.759 249.193 59.759C248.091 59.759 247.288 60.0297 246.786 60.571C246.283 61.093 246.032 61.6827 246.032 62.34C246.032 62.9007 246.177 63.4227 246.467 63.906C246.757 64.37 247.24 64.8147 247.917 65.24C248.613 65.646 249.55 66.052 250.73 66.458C251.271 66.6513 251.841 66.9027 252.441 67.212C253.04 67.5213 253.591 67.9177 254.094 68.401C254.616 68.865 255.041 69.4353 255.37 70.112C255.698 70.7693 255.863 71.562 255.863 72.49C255.863 73.3793 255.689 74.1817 255.341 74.897C255.012 75.6123 254.548 76.2213 253.949 76.724C253.369 77.2267 252.702 77.6133 251.948 77.884C251.213 78.1547 250.44 78.29 249.628 78.29C248.526 78.29 247.501 78.058 246.554 77.594C245.626 77.1107 244.804 76.4823 244.089 75.709C243.393 74.9163 242.822 74.0753 242.378 73.186L244.35 71.852Z" fill="white"/>
</svg>
