<svg width="95" height="104" viewBox="0 0 95 104" fill="none" xmlns="http://www.w3.org/2000/svg">
<path d="M28.6543 47.5H50.5435V23.5046L44.3029 27.6593V39.8909H66.3475V14.7183H51.445V3L28.6543 14.7183V47.5Z" stroke="#FF833B" stroke-width="3" stroke-miterlimit="10"/>
<path d="M4.68234 66.68V63.5H14.0723V66.68H4.68234ZM4.68234 75.02V71.93H13.7723V75.02H4.68234ZM2.49234 63.5H5.97234V84.5H2.49234V63.5ZM18.5475 79.1L19.2075 76.1H28.9575L29.6475 79.1H18.5475ZM24.0375 69.44L20.7375 77.15L20.6775 77.93L17.7675 84.5H13.7775L24.0375 62.33L34.2975 84.5H30.3075L27.4575 78.11L27.3675 77.24L24.0375 69.44ZM41.0604 74.48H44.9004L52.0104 84.5H47.7504L41.0604 74.48ZM36.7404 63.5H40.2804V84.5H36.7404V63.5ZM38.8404 66.56V63.5H43.2204C44.7404 63.5 46.0604 63.77 47.1804 64.31C48.3204 64.85 49.2004 65.61 49.8204 66.59C50.4404 67.55 50.7504 68.69 50.7504 70.01C50.7504 71.33 50.4404 72.48 49.8204 73.46C49.2004 74.44 48.3204 75.2 47.1804 75.74C46.0604 76.28 44.7404 76.55 43.2204 76.55H38.8404V73.64H43.0704C43.8704 73.64 44.5704 73.5 45.1704 73.22C45.7904 72.94 46.2704 72.54 46.6104 72.02C46.9504 71.48 47.1204 70.84 47.1204 70.1C47.1204 69.34 46.9504 68.7 46.6104 68.18C46.2704 67.66 45.7904 67.26 45.1704 66.98C44.5704 66.7 43.8704 66.56 43.0704 66.56H38.8404ZM56.7722 84.5V81.38H67.3622V84.5H56.7722ZM56.7722 66.62V63.5H67.3622V66.62H56.7722ZM56.7722 74.78V71.72H66.7622V74.78H56.7722ZM54.5822 63.5H58.0622V84.5H54.5822V63.5ZM87.0509 63.5H90.5309V85.55L75.2009 70.4V84.5H71.7209V62.45L87.0509 77.6V63.5Z" fill="#02000F"/>
<path d="M2.60481 100.14L3.08481 98.86H8.04481L8.52481 100.14H2.60481ZM5.53281 94.828L3.64481 99.276L3.51681 99.564L1.85281 103.5H0.332811L5.53281 91.74L10.7328 103.5H9.21281L7.58081 99.66L7.45281 99.34L5.53281 94.828ZM14.7353 97.98H16.2553L20.2553 103.5H18.5753L14.7353 97.98ZM12.7353 92.3H14.0953V103.5H12.7353V92.3ZM13.4873 93.5V92.3H15.7753C16.5006 92.3 17.146 92.4387 17.7113 92.716C18.2873 92.9827 18.7406 93.3667 19.0713 93.868C19.4126 94.3693 19.5833 94.9667 19.5833 95.66C19.5833 96.3427 19.4126 96.94 19.0713 97.452C18.7406 97.9533 18.2873 98.3427 17.7113 98.62C17.146 98.8867 16.5006 99.02 15.7753 99.02H13.4873V97.82H15.7753C16.2553 97.82 16.6766 97.7347 17.0393 97.564C17.4126 97.3933 17.7006 97.148 17.9033 96.828C18.1166 96.508 18.2233 96.1187 18.2233 95.66C18.2233 95.2013 18.1166 94.812 17.9033 94.492C17.7006 94.172 17.4126 93.9267 17.0393 93.756C16.6766 93.5853 16.2553 93.5 15.7753 93.5H13.4873ZM23.1284 97.9C23.1284 98.764 23.3204 99.5267 23.7044 100.188C24.0991 100.849 24.6111 101.367 25.2404 101.74C25.8698 102.113 26.5524 102.3 27.2884 102.3C27.8218 102.3 28.3071 102.231 28.7444 102.092C29.1924 101.953 29.5978 101.761 29.9604 101.516C30.3231 101.26 30.6324 100.967 30.8884 100.636V102.428C30.4191 102.844 29.9071 103.153 29.3524 103.356C28.7978 103.559 28.1098 103.66 27.2884 103.66C26.5098 103.66 25.7791 103.521 25.0964 103.244C24.4244 102.956 23.8324 102.556 23.3204 102.044C22.8084 101.521 22.4084 100.908 22.1204 100.204C21.8324 99.5 21.6884 98.732 21.6884 97.9C21.6884 97.068 21.8324 96.3 22.1204 95.596C22.4084 94.892 22.8084 94.284 23.3204 93.772C23.8324 93.2493 24.4244 92.8493 25.0964 92.572C25.7791 92.284 26.5098 92.14 27.2884 92.14C28.1098 92.14 28.7978 92.2413 29.3524 92.444C29.9071 92.6467 30.4191 92.956 30.8884 93.372V95.164C30.6324 94.8333 30.3231 94.5453 29.9604 94.3C29.5978 94.044 29.1924 93.8467 28.7444 93.708C28.3071 93.5693 27.8218 93.5 27.2884 93.5C26.5524 93.5 25.8698 93.6867 25.2404 94.06C24.6111 94.4333 24.0991 94.9507 23.7044 95.612C23.3204 96.2627 23.1284 97.0253 23.1284 97.9ZM34.6736 98.06V96.78H42.3536V98.06H34.6736ZM41.4416 92.3H42.8016V103.5H41.4416V92.3ZM33.9216 92.3H35.2816V103.5H33.9216V92.3ZM45.9991 92.3H47.3591V103.5H45.9991V92.3ZM49.4409 93.58V92.3H56.5609V93.58H53.6809V103.5H52.3209V93.58H49.4409ZM59.3904 103.5V102.22H65.0384V103.5H59.3904ZM59.3904 93.58V92.3H65.0384V93.58H59.3904ZM59.3904 98.06V96.78H64.7184V98.06H59.3904ZM58.6384 92.3H59.9984V103.5H58.6384V92.3ZM68.8753 97.9C68.8753 98.764 69.0673 99.5267 69.4513 100.188C69.846 100.849 70.358 101.367 70.9873 101.74C71.6167 102.113 72.2993 102.3 73.0353 102.3C73.5687 102.3 74.054 102.231 74.4913 102.092C74.9393 101.953 75.3447 101.761 75.7073 101.516C76.07 101.26 76.3793 100.967 76.6353 100.636V102.428C76.166 102.844 75.654 103.153 75.0993 103.356C74.5447 103.559 73.8567 103.66 73.0353 103.66C72.2567 103.66 71.526 103.521 70.8433 103.244C70.1713 102.956 69.5793 102.556 69.0673 102.044C68.5553 101.521 68.1553 100.908 67.8673 100.204C67.5793 99.5 67.4353 98.732 67.4353 97.9C67.4353 97.068 67.5793 96.3 67.8673 95.596C68.1553 94.892 68.5553 94.284 69.0673 93.772C69.5793 93.2493 70.1713 92.8493 70.8433 92.572C71.526 92.284 72.2567 92.14 73.0353 92.14C73.8567 92.14 74.5447 92.2413 75.0993 92.444C75.654 92.6467 76.166 92.956 76.6353 93.372V95.164C76.3793 94.8333 76.07 94.5453 75.7073 94.3C75.3447 94.044 74.9393 93.8467 74.4913 93.708C74.054 93.5693 73.5687 93.5 73.0353 93.5C72.2993 93.5 71.6167 93.6867 70.9873 94.06C70.358 94.4333 69.846 94.9507 69.4513 95.612C69.0673 96.2627 68.8753 97.0253 68.8753 97.9ZM78.0641 93.58V92.3H85.1841V93.58H82.3041V103.5H80.9441V93.58H78.0641ZM87.6776 100.108C87.9336 100.556 88.2002 100.951 88.4776 101.292C88.7656 101.633 89.0856 101.9 89.4376 102.092C89.7896 102.284 90.1896 102.38 90.6376 102.38C91.2349 102.38 91.7149 102.215 92.0776 101.884C92.4402 101.553 92.6216 101.132 92.6216 100.62C92.6216 100.119 92.5042 99.7187 92.2696 99.42C92.0349 99.1213 91.7256 98.8813 91.3416 98.7C90.9682 98.508 90.5682 98.3373 90.1416 98.188C89.8642 98.092 89.5549 97.9693 89.2136 97.82C88.8722 97.66 88.5469 97.4627 88.2376 97.228C87.9282 96.9827 87.6722 96.684 87.4696 96.332C87.2776 95.98 87.1816 95.548 87.1816 95.036C87.1816 94.4813 87.3202 93.9853 87.5976 93.548C87.8749 93.1107 88.2589 92.7693 88.7496 92.524C89.2402 92.268 89.8002 92.14 90.4296 92.14C91.0376 92.14 91.5656 92.2573 92.0136 92.492C92.4722 92.716 92.8616 93.0093 93.1816 93.372C93.5016 93.724 93.7522 94.0973 93.9336 94.492L92.7656 95.164C92.6269 94.8867 92.4509 94.6147 92.2376 94.348C92.0242 94.0813 91.7629 93.8627 91.4536 93.692C91.1549 93.5213 90.7869 93.436 90.3496 93.436C89.7416 93.436 89.2989 93.5853 89.0216 93.884C88.7442 94.172 88.6056 94.4973 88.6056 94.86C88.6056 95.1693 88.6856 95.4573 88.8456 95.724C89.0056 95.98 89.2722 96.2253 89.6456 96.46C90.0296 96.684 90.5469 96.908 91.1976 97.132C91.4962 97.2387 91.8109 97.3773 92.1416 97.548C92.4722 97.7187 92.7762 97.9373 93.0536 98.204C93.3416 98.46 93.5762 98.7747 93.7576 99.148C93.9389 99.5107 94.0296 99.948 94.0296 100.46C94.0296 100.951 93.9336 101.393 93.7416 101.788C93.5602 102.183 93.3042 102.519 92.9736 102.796C92.6536 103.073 92.2856 103.287 91.8696 103.436C91.4642 103.585 91.0376 103.66 90.5896 103.66C89.9816 103.66 89.4162 103.532 88.8936 103.276C88.3816 103.009 87.9282 102.663 87.5336 102.236C87.1496 101.799 86.8349 101.335 86.5896 100.844L87.6776 100.108Z" fill="#02000F"/>
</svg>
