<svg width="160" height="50" viewBox="0 0 160 50" fill="none" xmlns="http://www.w3.org/2000/svg">
<path d="M2 47.75H23.8892V23.7546L17.6486 27.9093V40.1409H39.6932V14.9683H24.7907V3.25L2 14.9683V47.75Z" stroke="#FF833B" stroke-width="3" stroke-miterlimit="10"/>
<path d="M61.4839 26.5H57.8679V5.06H61.4839V26.5ZM70.7959 18.052H59.0839V14.852H70.7959V18.052ZM72.7479 8.26H59.0839V5.06H72.7479V8.26ZM75.2864 26.5H71.4784L79.8624 5.06H84.0224L92.4064 26.5H88.4064L83.0304 12.164L81.8784 8.292L80.7264 12.164L75.2864 26.5ZM87.6704 21.092H75.7664V17.956H87.6704V21.092ZM103.885 18.212H95.1486V15.236H103.149C103.917 15.236 104.621 15.1293 105.261 14.916C105.901 14.7027 106.402 14.3507 106.765 13.86C107.149 13.348 107.341 12.6653 107.341 11.812C107.341 10.8947 107.149 10.18 106.765 9.668C106.402 9.156 105.901 8.79333 105.261 8.58C104.621 8.36667 103.917 8.26 103.149 8.26H95.1486V5.06H103.501C104.951 5.06 106.253 5.316 107.405 5.828C108.557 6.31867 109.463 7.05467 110.125 8.036C110.786 9.01733 111.117 10.244 111.117 11.716C111.117 13.0813 110.797 14.2227 110.157 15.14C109.517 16.0573 108.653 16.7507 107.565 17.22C106.477 17.668 105.25 17.892 103.885 17.892V18.212ZM97.4526 26.5H93.8366V5.06H97.4526V26.5ZM111.853 26.5H107.661L103.981 20.132C103.575 19.4067 103.074 18.9053 102.477 18.628C101.901 18.3507 101.101 18.212 100.077 18.212L104.109 17.572C104.77 17.636 105.346 17.7853 105.837 18.02C106.327 18.2333 106.765 18.532 107.149 18.916C107.533 19.2787 107.885 19.748 108.205 20.324L111.853 26.5ZM117.64 26.5H114.024V5.06H117.64V26.5ZM129.192 26.5H115.24V23.3H129.192V26.5ZM127.208 17.156H115.24V13.956H127.208V17.156ZM129.192 8.26H115.24V5.06H129.192V8.26ZM135.609 26.5H131.993V5.06H135.353L144.025 17.54L146.137 20.9L145.913 16.836V5.06H149.529V26.5H146.201L137.305 13.828L135.353 10.788L135.609 14.724V26.5Z" fill="white"/>
<path d="M58.2648 45.5H56.2418L60.6958 34.11H62.9058L67.3598 45.5H65.2348L62.3788 37.884L61.7668 35.827L61.1548 37.884L58.2648 45.5ZM64.8438 42.627H58.5198V40.961H64.8438V42.627ZM74.1376 41.097H69.4966V39.516H73.7466C74.1546 39.516 74.5286 39.4593 74.8686 39.346C75.2086 39.2327 75.4749 39.0457 75.6676 38.785C75.8716 38.513 75.9736 38.1503 75.9736 37.697C75.9736 37.2097 75.8716 36.83 75.6676 36.558C75.4749 36.286 75.2086 36.0933 74.8686 35.98C74.5286 35.8667 74.1546 35.81 73.7466 35.81H69.4966V34.11H73.9336C74.7043 34.11 75.3956 34.246 76.0076 34.518C76.6196 34.7787 77.1013 35.1697 77.4526 35.691C77.8039 36.2123 77.9796 36.864 77.9796 37.646C77.9796 38.3713 77.8096 38.9777 77.4696 39.465C77.1296 39.9523 76.6706 40.3207 76.0926 40.57C75.5146 40.808 74.8629 40.927 74.1376 40.927V41.097ZM70.7206 45.5H68.7996V34.11H70.7206V45.5ZM78.3706 45.5H76.1436L74.1886 42.117C73.9733 41.7317 73.7069 41.4653 73.3896 41.318C73.0836 41.1707 72.6586 41.097 72.1146 41.097L74.2566 40.757C74.6079 40.791 74.9139 40.8703 75.1746 40.995C75.4353 41.1083 75.6676 41.267 75.8716 41.471C76.0756 41.6637 76.2626 41.913 76.4326 42.219L78.3706 45.5ZM85.188 45.636C84.0207 45.636 83.029 45.3753 82.213 44.854C81.397 44.3327 80.7737 43.63 80.343 42.746C79.9237 41.862 79.714 40.876 79.714 39.788C79.714 38.6887 79.9237 37.7027 80.343 36.83C80.7737 35.946 81.397 35.2433 82.213 34.722C83.029 34.2007 84.0207 33.94 85.188 33.94C86.038 33.94 86.7917 34.0817 87.449 34.365C88.1063 34.637 88.6673 35.0337 89.132 35.555C89.608 36.0763 89.9763 36.711 90.237 37.459L88.571 38.683C88.4463 38.1163 88.2423 37.612 87.959 37.17C87.687 36.728 87.3187 36.3823 86.854 36.133C86.4007 35.8837 85.851 35.759 85.205 35.759C84.423 35.759 83.777 35.9347 83.267 36.286C82.757 36.626 82.3773 37.0963 82.128 37.697C81.8787 38.2977 81.754 38.9947 81.754 39.788C81.754 40.57 81.8787 41.267 82.128 41.879C82.3773 42.4797 82.757 42.9557 83.267 43.307C83.777 43.647 84.423 43.817 85.205 43.817C85.851 43.817 86.4007 43.6923 86.854 43.443C87.3187 43.1937 87.687 42.848 87.959 42.406C88.2423 41.964 88.4463 41.4597 88.571 40.893L90.237 42.117C89.9763 42.8537 89.608 43.4883 89.132 44.021C88.6673 44.5423 88.1063 44.9447 87.449 45.228C86.7917 45.5 86.038 45.636 85.188 45.636ZM101.755 45.5H99.8339V34.11H101.755V45.5ZM94.3599 45.5H92.4389V34.11H94.3599V45.5ZM100.718 40.536H93.2039V38.836H100.718V40.536ZM106.893 45.5H104.972V34.11H106.893V45.5ZM113.779 45.5H111.858V34.11H113.779V45.5ZM117.281 35.81H108.356V34.11H117.281V35.81ZM120.655 45.5H118.734V34.11H120.655V45.5ZM126.792 45.5H119.38V43.8H126.792V45.5ZM125.738 40.536H119.38V38.836H125.738V40.536ZM126.792 35.81H119.38V34.11H126.792V35.81ZM133.694 45.636C132.527 45.636 131.535 45.3753 130.719 44.854C129.903 44.3327 129.28 43.63 128.849 42.746C128.43 41.862 128.22 40.876 128.22 39.788C128.22 38.6887 128.43 37.7027 128.849 36.83C129.28 35.946 129.903 35.2433 130.719 34.722C131.535 34.2007 132.527 33.94 133.694 33.94C134.544 33.94 135.298 34.0817 135.955 34.365C136.613 34.637 137.174 35.0337 137.638 35.555C138.114 36.0763 138.483 36.711 138.743 37.459L137.077 38.683C136.953 38.1163 136.749 37.612 136.465 37.17C136.193 36.728 135.825 36.3823 135.36 36.133C134.907 35.8837 134.357 35.759 133.711 35.759C132.929 35.759 132.283 35.9347 131.773 36.286C131.263 36.626 130.884 37.0963 130.634 37.697C130.385 38.2977 130.26 38.9947 130.26 39.788C130.26 40.57 130.385 41.267 130.634 41.879C130.884 42.4797 131.263 42.9557 131.773 43.307C132.283 43.647 132.929 43.817 133.711 43.817C134.357 43.817 134.907 43.6923 135.36 43.443C135.825 43.1937 136.193 42.848 136.465 42.406C136.749 41.964 136.953 41.4597 137.077 40.893L138.743 42.117C138.483 42.8537 138.114 43.4883 137.638 44.021C137.174 44.5423 136.613 44.9447 135.955 45.228C135.298 45.5 134.544 45.636 133.694 45.636ZM144.971 45.5H143.05V34.11H144.971V45.5ZM148.473 35.81H139.548V34.11H148.473V35.81ZM154.485 45.67C153.759 45.67 153.068 45.5793 152.411 45.398C151.753 45.2167 151.164 44.9277 150.643 44.531C150.133 44.1343 149.73 43.6187 149.436 42.984L150.796 41.59C151 42.1453 151.306 42.593 151.714 42.933C152.122 43.273 152.575 43.5223 153.074 43.681C153.584 43.8283 154.065 43.902 154.519 43.902C154.904 43.902 155.25 43.8567 155.556 43.766C155.862 43.664 156.105 43.511 156.287 43.307C156.479 43.0917 156.576 42.8083 156.576 42.457C156.576 42.0943 156.479 41.8053 156.287 41.59C156.094 41.3747 155.816 41.2047 155.454 41.08C155.102 40.9553 154.677 40.8363 154.179 40.723L153.091 40.485C152.694 40.3943 152.297 40.281 151.901 40.145C151.515 39.9977 151.158 39.805 150.83 39.567C150.501 39.3177 150.24 39.006 150.048 38.632C149.855 38.258 149.759 37.799 149.759 37.255C149.759 36.541 149.94 35.9403 150.303 35.453C150.677 34.9543 151.17 34.5803 151.782 34.331C152.394 34.0817 153.057 33.957 153.771 33.957C154.813 33.957 155.731 34.1667 156.525 34.586C157.329 35.0053 157.936 35.606 158.344 36.388L156.899 37.765C156.581 37.0623 156.134 36.5523 155.556 36.235C154.978 35.9063 154.343 35.742 153.652 35.742C153.289 35.742 152.966 35.7987 152.683 35.912C152.399 36.0253 152.178 36.184 152.02 36.388C151.861 36.592 151.782 36.8413 151.782 37.136C151.782 37.6233 151.963 37.986 152.326 38.224C152.7 38.4507 153.193 38.6377 153.805 38.785L155.08 39.091C155.533 39.2043 155.964 39.3403 156.372 39.499C156.791 39.6577 157.159 39.8617 157.477 40.111C157.805 40.3603 158.06 40.672 158.242 41.046C158.434 41.42 158.531 41.879 158.531 42.423C158.531 43.103 158.355 43.6867 158.004 44.174C157.652 44.6613 157.171 45.0353 156.559 45.296C155.947 45.5453 155.255 45.67 154.485 45.67Z" fill="white"/>
</svg>
