<svg width="157" height="49" viewBox="0 0 157 49" fill="none" xmlns="http://www.w3.org/2000/svg">
<path d="M2 47.5H23.8892V23.5046L17.6486 27.6593V39.8909H39.6932V14.7183H24.7907V3L2 14.7183V47.5Z" stroke="#FF833B" stroke-width="3" stroke-miterlimit="10"/>
<path d="M60.5876 7.242V3.85H70.6036V7.242H60.5876ZM60.5876 16.138V12.842H70.2836V16.138H60.5876ZM58.2516 3.85H61.9636V26.25H58.2516V3.85ZM75.3771 20.49L76.0811 17.29H86.4811L87.2171 20.49H75.3771ZM81.2331 10.186L77.7131 18.41L77.6491 19.242L74.5451 26.25H70.2891L81.2331 2.602L92.1771 26.25H87.9211L84.8811 19.434L84.7851 18.506L81.2331 10.186ZM99.3909 15.562H103.487L111.071 26.25H106.527L99.3909 15.562ZM94.7829 3.85H98.5589V26.25H94.7829V3.85ZM97.0229 7.114V3.85H101.695C103.316 3.85 104.724 4.138 105.919 4.714C107.135 5.29 108.074 6.10067 108.735 7.146C109.396 8.17 109.727 9.386 109.727 10.794C109.727 12.202 109.396 13.4287 108.735 14.474C108.074 15.5193 107.135 16.33 105.919 16.906C104.724 17.482 103.316 17.77 101.695 17.77H97.0229V14.666H101.535C102.388 14.666 103.135 14.5167 103.775 14.218C104.436 13.9193 104.948 13.4927 105.311 12.938C105.674 12.362 105.855 11.6793 105.855 10.89C105.855 10.0793 105.674 9.39667 105.311 8.842C104.948 8.28733 104.436 7.86067 103.775 7.562C103.135 7.26333 102.388 7.114 101.535 7.114H97.0229ZM116.15 26.25V22.922H127.446V26.25H116.15ZM116.15 7.178V3.85H127.446V7.178H116.15ZM116.15 15.882V12.618H126.806V15.882H116.15ZM113.814 3.85H117.526V26.25H113.814V3.85ZM148.447 3.85H152.159V27.37L135.807 11.21V26.25H132.095V2.73L148.447 18.89V3.85Z" fill="#02000F"/>
<path d="M58.492 42.68L59.002 41.32H64.272L64.782 42.68H58.492ZM61.603 37.036L59.597 41.762L59.461 42.068L57.693 46.25H56.078L61.603 33.755L67.128 46.25H65.513L63.779 42.17L63.643 41.83L61.603 37.036ZM71.3806 40.385H72.9956L77.2456 46.25H75.4606L71.3806 40.385ZM69.2556 34.35H70.7006V46.25H69.2556V34.35ZM70.0546 35.625V34.35H72.4856C73.2563 34.35 73.942 34.4973 74.5426 34.792C75.1546 35.0753 75.6363 35.4833 75.9876 36.016C76.3503 36.5487 76.5316 37.1833 76.5316 37.92C76.5316 38.6453 76.3503 39.28 75.9876 39.824C75.6363 40.3567 75.1546 40.7703 74.5426 41.065C73.942 41.3483 73.2563 41.49 72.4856 41.49H70.0546V40.215H72.4856C72.9956 40.215 73.4433 40.1243 73.8286 39.943C74.2253 39.7617 74.5313 39.501 74.7466 39.161C74.9733 38.821 75.0866 38.4073 75.0866 37.92C75.0866 37.4327 74.9733 37.019 74.7466 36.679C74.5313 36.339 74.2253 36.0783 73.8286 35.897C73.4433 35.7157 72.9956 35.625 72.4856 35.625H70.0546ZM80.2983 40.3C80.2983 41.218 80.5023 42.0283 80.9103 42.731C81.3297 43.4337 81.8737 43.9833 82.5423 44.38C83.211 44.7767 83.9363 44.975 84.7183 44.975C85.285 44.975 85.8007 44.9013 86.2653 44.754C86.7413 44.6067 87.172 44.4027 87.5573 44.142C87.9427 43.87 88.2713 43.5583 88.5433 43.207V45.111C88.0447 45.553 87.5007 45.8817 86.9113 46.097C86.322 46.3123 85.591 46.42 84.7183 46.42C83.891 46.42 83.1147 46.2727 82.3893 45.978C81.6753 45.672 81.0463 45.247 80.5023 44.703C79.9583 44.1477 79.5333 43.496 79.2273 42.748C78.9213 42 78.7683 41.184 78.7683 40.3C78.7683 39.416 78.9213 38.6 79.2273 37.852C79.5333 37.104 79.9583 36.458 80.5023 35.914C81.0463 35.3587 81.6753 34.9337 82.3893 34.639C83.1147 34.333 83.891 34.18 84.7183 34.18C85.591 34.18 86.322 34.2877 86.9113 34.503C87.5007 34.7183 88.0447 35.047 88.5433 35.489V37.393C88.2713 37.0417 87.9427 36.7357 87.5573 36.475C87.172 36.203 86.7413 35.9933 86.2653 35.846C85.8007 35.6987 85.285 35.625 84.7183 35.625C83.9363 35.625 83.211 35.8233 82.5423 36.22C81.8737 36.6167 81.3297 37.1663 80.9103 37.869C80.5023 38.5603 80.2983 39.3707 80.2983 40.3ZM92.565 40.47V39.11H100.725V40.47H92.565ZM99.756 34.35H101.201V46.25H99.756V34.35ZM91.766 34.35H93.211V46.25H91.766V34.35ZM104.598 34.35H106.043V46.25H104.598V34.35ZM108.255 35.71V34.35H115.82V35.71H112.76V46.25H111.315V35.71H108.255ZM118.827 46.25V44.89H124.828V46.25H118.827ZM118.827 35.71V34.35H124.828V35.71H118.827ZM118.827 40.47V39.11H124.488V40.47H118.827ZM118.028 34.35H119.473V46.25H118.028V34.35ZM128.904 40.3C128.904 41.218 129.108 42.0283 129.516 42.731C129.936 43.4337 130.48 43.9833 131.148 44.38C131.817 44.7767 132.542 44.975 133.324 44.975C133.891 44.975 134.407 44.9013 134.871 44.754C135.347 44.6067 135.778 44.4027 136.163 44.142C136.549 43.87 136.877 43.5583 137.149 43.207V45.111C136.651 45.553 136.107 45.8817 135.517 46.097C134.928 46.3123 134.197 46.42 133.324 46.42C132.497 46.42 131.721 46.2727 130.995 45.978C130.281 45.672 129.652 45.247 129.108 44.703C128.564 44.1477 128.139 43.496 127.833 42.748C127.527 42 127.374 41.184 127.374 40.3C127.374 39.416 127.527 38.6 127.833 37.852C128.139 37.104 128.564 36.458 129.108 35.914C129.652 35.3587 130.281 34.9337 130.995 34.639C131.721 34.333 132.497 34.18 133.324 34.18C134.197 34.18 134.928 34.2877 135.517 34.503C136.107 34.7183 136.651 35.047 137.149 35.489V37.393C136.877 37.0417 136.549 36.7357 136.163 36.475C135.778 36.203 135.347 35.9933 134.871 35.846C134.407 35.6987 133.891 35.625 133.324 35.625C132.542 35.625 131.817 35.8233 131.148 36.22C130.48 36.6167 129.936 37.1663 129.516 37.869C129.108 38.5603 128.904 39.3707 128.904 40.3ZM138.667 35.71V34.35H146.232V35.71H143.172V46.25H141.727V35.71H138.667ZM148.882 42.646C149.154 43.122 149.437 43.5413 149.732 43.904C150.038 44.2667 150.378 44.55 150.752 44.754C151.126 44.958 151.551 45.06 152.027 45.06C152.661 45.06 153.171 44.8843 153.557 44.533C153.942 44.1817 154.135 43.734 154.135 43.19C154.135 42.6573 154.01 42.2323 153.761 41.915C153.511 41.5977 153.183 41.3427 152.775 41.15C152.378 40.946 151.953 40.7647 151.5 40.606C151.205 40.504 150.876 40.3737 150.514 40.215C150.151 40.045 149.805 39.8353 149.477 39.586C149.148 39.3253 148.876 39.008 148.661 38.634C148.457 38.26 148.355 37.801 148.355 37.257C148.355 36.6677 148.502 36.1407 148.797 35.676C149.091 35.2113 149.499 34.8487 150.021 34.588C150.542 34.316 151.137 34.18 151.806 34.18C152.452 34.18 153.013 34.3047 153.489 34.554C153.976 34.792 154.39 35.1037 154.73 35.489C155.07 35.863 155.336 36.2597 155.529 36.679L154.288 37.393C154.14 37.0983 153.953 36.8093 153.727 36.526C153.5 36.2427 153.222 36.0103 152.894 35.829C152.576 35.6477 152.185 35.557 151.721 35.557C151.075 35.557 150.604 35.7157 150.31 36.033C150.015 36.339 149.868 36.6847 149.868 37.07C149.868 37.3987 149.953 37.7047 150.123 37.988C150.293 38.26 150.576 38.5207 150.973 38.77C151.381 39.008 151.93 39.246 152.622 39.484C152.939 39.5973 153.273 39.7447 153.625 39.926C153.976 40.1073 154.299 40.3397 154.594 40.623C154.9 40.895 155.149 41.2293 155.342 41.626C155.534 42.0113 155.631 42.476 155.631 43.02C155.631 43.5413 155.529 44.0117 155.325 44.431C155.132 44.8503 154.86 45.2073 154.509 45.502C154.169 45.7967 153.778 46.0233 153.336 46.182C152.905 46.3407 152.452 46.42 151.976 46.42C151.33 46.42 150.729 46.284 150.174 46.012C149.63 45.7287 149.148 45.3603 148.729 44.907C148.321 44.4423 147.986 43.9493 147.726 43.428L148.882 42.646Z" fill="#02000F"/>
</svg>
