<svg width="157" height="49" viewBox="0 0 157 49" fill="none" xmlns="http://www.w3.org/2000/svg">
<path d="M2 47.25H23.8892V23.2546L17.6486 27.4093V39.6409H39.6932V14.4683H24.7907V2.75L2 14.4683V47.25Z" stroke="#FF833B" stroke-width="3" stroke-miterlimit="10"/>
<path d="M60.5879 6.992V3.6H70.6039V6.992H60.5879ZM60.5879 15.888V12.592H70.2839V15.888H60.5879ZM58.2519 3.6H61.9639V26H58.2519V3.6ZM75.3774 20.24L76.0814 17.04H86.4814L87.2174 20.24H75.3774ZM81.2334 9.936L77.7134 18.16L77.6494 18.992L74.5454 26H70.2894L81.2334 2.352L92.1774 26H87.9214L84.8814 19.184L84.7854 18.256L81.2334 9.936ZM99.3911 15.312H103.487L111.071 26H106.527L99.3911 15.312ZM94.7831 3.6H98.5591V26H94.7831V3.6ZM97.0231 6.864V3.6H101.695C103.316 3.6 104.724 3.888 105.919 4.464C107.135 5.04 108.074 5.85067 108.735 6.896C109.396 7.92 109.727 9.136 109.727 10.544C109.727 11.952 109.396 13.1787 108.735 14.224C108.074 15.2693 107.135 16.08 105.919 16.656C104.724 17.232 103.316 17.52 101.695 17.52H97.0231V14.416H101.535C102.388 14.416 103.135 14.2667 103.775 13.968C104.436 13.6693 104.948 13.2427 105.311 12.688C105.674 12.112 105.855 11.4293 105.855 10.64C105.855 9.82933 105.674 9.14667 105.311 8.592C104.948 8.03733 104.436 7.61067 103.775 7.312C103.135 7.01333 102.388 6.864 101.535 6.864H97.0231ZM116.15 26V22.672H127.446V26H116.15ZM116.15 6.928V3.6H127.446V6.928H116.15ZM116.15 15.632V12.368H126.806V15.632H116.15ZM113.814 3.6H117.526V26H113.814V3.6ZM148.448 3.6H152.16V27.12L135.808 10.96V26H132.096V2.48L148.448 18.64V3.6Z" fill="white"/>
<path d="M58.4922 42.43L59.0022 41.07H64.2722L64.7822 42.43H58.4922ZM61.6032 36.786L59.5972 41.512L59.4612 41.818L57.6932 46H56.0782L61.6032 33.505L67.1282 46H65.5132L63.7792 41.92L63.6432 41.58L61.6032 36.786ZM71.3809 40.135H72.9959L77.2459 46H75.4609L71.3809 40.135ZM69.2559 34.1H70.7009V46H69.2559V34.1ZM70.0549 35.375V34.1H72.4859C73.2565 34.1 73.9422 34.2473 74.5429 34.542C75.1549 34.8253 75.6365 35.2333 75.9879 35.766C76.3505 36.2987 76.5319 36.9333 76.5319 37.67C76.5319 38.3953 76.3505 39.03 75.9879 39.574C75.6365 40.1067 75.1549 40.5203 74.5429 40.815C73.9422 41.0983 73.2565 41.24 72.4859 41.24H70.0549V39.965H72.4859C72.9959 39.965 73.4435 39.8743 73.8289 39.693C74.2255 39.5117 74.5315 39.251 74.7469 38.911C74.9735 38.571 75.0869 38.1573 75.0869 37.67C75.0869 37.1827 74.9735 36.769 74.7469 36.429C74.5315 36.089 74.2255 35.8283 73.8289 35.647C73.4435 35.4657 72.9959 35.375 72.4859 35.375H70.0549ZM80.2986 40.05C80.2986 40.968 80.5026 41.7783 80.9106 42.481C81.3299 43.1837 81.8739 43.7333 82.5426 44.13C83.2112 44.5267 83.9366 44.725 84.7186 44.725C85.2852 44.725 85.8009 44.6513 86.2656 44.504C86.7416 44.3567 87.1722 44.1527 87.5576 43.892C87.9429 43.62 88.2716 43.3083 88.5436 42.957V44.861C88.0449 45.303 87.5009 45.6317 86.9116 45.847C86.3222 46.0623 85.5912 46.17 84.7186 46.17C83.8912 46.17 83.1149 46.0227 82.3896 45.728C81.6756 45.422 81.0466 44.997 80.5026 44.453C79.9586 43.8977 79.5336 43.246 79.2276 42.498C78.9216 41.75 78.7686 40.934 78.7686 40.05C78.7686 39.166 78.9216 38.35 79.2276 37.602C79.5336 36.854 79.9586 36.208 80.5026 35.664C81.0466 35.1087 81.6756 34.6837 82.3896 34.389C83.1149 34.083 83.8912 33.93 84.7186 33.93C85.5912 33.93 86.3222 34.0377 86.9116 34.253C87.5009 34.4683 88.0449 34.797 88.5436 35.239V37.143C88.2716 36.7917 87.9429 36.4857 87.5576 36.225C87.1722 35.953 86.7416 35.7433 86.2656 35.596C85.8009 35.4487 85.2852 35.375 84.7186 35.375C83.9366 35.375 83.2112 35.5733 82.5426 35.97C81.8739 36.3667 81.3299 36.9163 80.9106 37.619C80.5026 38.3103 80.2986 39.1207 80.2986 40.05ZM92.5653 40.22V38.86H100.725V40.22H92.5653ZM99.7563 34.1H101.201V46H99.7563V34.1ZM91.7663 34.1H93.2113V46H91.7663V34.1ZM104.599 34.1H106.044V46H104.599V34.1ZM108.256 35.46V34.1H115.821V35.46H112.761V46H111.316V35.46H108.256ZM118.827 46V44.64H124.828V46H118.827ZM118.827 35.46V34.1H124.828V35.46H118.827ZM118.827 40.22V38.86H124.488V40.22H118.827ZM118.028 34.1H119.473V46H118.028V34.1ZM128.905 40.05C128.905 40.968 129.109 41.7783 129.517 42.481C129.936 43.1837 130.48 43.7333 131.149 44.13C131.817 44.5267 132.543 44.725 133.325 44.725C133.891 44.725 134.407 44.6513 134.872 44.504C135.348 44.3567 135.778 44.1527 136.164 43.892C136.549 43.62 136.878 43.3083 137.15 42.957V44.861C136.651 45.303 136.107 45.6317 135.518 45.847C134.928 46.0623 134.197 46.17 133.325 46.17C132.497 46.17 131.721 46.0227 130.996 45.728C130.282 45.422 129.653 44.997 129.109 44.453C128.565 43.8977 128.14 43.246 127.834 42.498C127.528 41.75 127.375 40.934 127.375 40.05C127.375 39.166 127.528 38.35 127.834 37.602C128.14 36.854 128.565 36.208 129.109 35.664C129.653 35.1087 130.282 34.6837 130.996 34.389C131.721 34.083 132.497 33.93 133.325 33.93C134.197 33.93 134.928 34.0377 135.518 34.253C136.107 34.4683 136.651 34.797 137.15 35.239V37.143C136.878 36.7917 136.549 36.4857 136.164 36.225C135.778 35.953 135.348 35.7433 134.872 35.596C134.407 35.4487 133.891 35.375 133.325 35.375C132.543 35.375 131.817 35.5733 131.149 35.97C130.48 36.3667 129.936 36.9163 129.517 37.619C129.109 38.3103 128.905 39.1207 128.905 40.05ZM138.668 35.46V34.1H146.233V35.46H143.173V46H141.728V35.46H138.668ZM148.882 42.396C149.154 42.872 149.437 43.2913 149.732 43.654C150.038 44.0167 150.378 44.3 150.752 44.504C151.126 44.708 151.551 44.81 152.027 44.81C152.662 44.81 153.172 44.6343 153.557 44.283C153.942 43.9317 154.135 43.484 154.135 42.94C154.135 42.4073 154.01 41.9823 153.761 41.665C153.512 41.3477 153.183 41.0927 152.775 40.9C152.378 40.696 151.953 40.5147 151.5 40.356C151.205 40.254 150.877 40.1237 150.514 39.965C150.151 39.795 149.806 39.5853 149.477 39.336C149.148 39.0753 148.876 38.758 148.661 38.384C148.457 38.01 148.355 37.551 148.355 37.007C148.355 36.4177 148.502 35.8907 148.797 35.426C149.092 34.9613 149.5 34.5987 150.021 34.338C150.542 34.066 151.137 33.93 151.806 33.93C152.452 33.93 153.013 34.0547 153.489 34.304C153.976 34.542 154.39 34.8537 154.73 35.239C155.07 35.613 155.336 36.0097 155.529 36.429L154.288 37.143C154.141 36.8483 153.954 36.5593 153.727 36.276C153.5 35.9927 153.223 35.7603 152.894 35.579C152.577 35.3977 152.186 35.307 151.721 35.307C151.075 35.307 150.605 35.4657 150.31 35.783C150.015 36.089 149.868 36.4347 149.868 36.82C149.868 37.1487 149.953 37.4547 150.123 37.738C150.293 38.01 150.576 38.2707 150.973 38.52C151.381 38.758 151.931 38.996 152.622 39.234C152.939 39.3473 153.274 39.4947 153.625 39.676C153.976 39.8573 154.299 40.0897 154.594 40.373C154.9 40.645 155.149 40.9793 155.342 41.376C155.535 41.7613 155.631 42.226 155.631 42.77C155.631 43.2913 155.529 43.7617 155.325 44.181C155.132 44.6003 154.86 44.9573 154.509 45.252C154.169 45.5467 153.778 45.7733 153.336 45.932C152.905 46.0907 152.452 46.17 151.976 46.17C151.33 46.17 150.729 46.034 150.174 45.762C149.63 45.4787 149.148 45.1103 148.729 44.657C148.321 44.1923 147.987 43.6993 147.726 43.178L148.882 42.396Z" fill="white"/>
</svg>
