<svg width="160" height="91" viewBox="0 0 160 91" fill="none" xmlns="http://www.w3.org/2000/svg">
<g clip-path="url(#clip0_767_3550)">
<path d="M33.8999 84.5L66.3999 64.5M33.8999 84.5L17.6499 74.5M33.8999 84.5V28.5M66.3999 64.5V45.75M66.3999 64.5L49.8999 55.0231M17.6499 74.5L1.3999 64.5M17.6499 74.5V55.5M33.8999 28.5V8.5M33.8999 28.5L66.3999 45.75M1.3999 64.5V27L33.8999 8.5M1.3999 64.5L17.6499 55.5M33.8999 8.5L50.1499 17.75M17.6499 55.5V36.5L49.8999 55.0231M50.1499 17.75L66.3999 27V45.75M50.1499 17.75L49.8999 55.0231" stroke="#02000F" stroke-width="2"/>
<path d="M81.539 22.5V10.68H77.439V8.5H88.299V10.68H84.219V22.5H81.539ZM99.0326 22.5V8.5H101.733V22.5H99.0326ZM90.2126 22.5V8.5H92.9126V22.5H90.2126ZM92.5326 16.44V14.26H99.4926V16.44H92.5326ZM104.49 22.5V8.5H113.69V10.68H107.19V14.34H113.09V16.44H107.19V20.32H113.69V22.5H104.49ZM83.099 52.74C82.0857 52.74 81.179 52.5667 80.379 52.22C79.5923 51.8733 78.9657 51.3667 78.499 50.7C78.0457 50.0333 77.8123 49.2267 77.799 48.28H80.659C80.6723 48.6933 80.779 49.0667 80.979 49.4C81.179 49.7333 81.4523 50 81.799 50.2C82.159 50.3867 82.5857 50.48 83.079 50.48C83.5057 50.48 83.8723 50.4133 84.179 50.28C84.499 50.1333 84.7457 49.9333 84.919 49.68C85.0923 49.4267 85.179 49.1267 85.179 48.78C85.179 48.38 85.079 48.0467 84.879 47.78C84.6923 47.5133 84.4257 47.2867 84.079 47.1C83.7457 46.9133 83.3523 46.7467 82.899 46.6C82.459 46.44 81.9923 46.2733 81.499 46.1C80.3923 45.74 79.5457 45.26 78.959 44.66C78.3857 44.06 78.099 43.2667 78.099 42.28C78.099 41.44 78.299 40.72 78.699 40.12C79.1123 39.52 79.679 39.06 80.399 38.74C81.119 38.42 81.939 38.26 82.859 38.26C83.8057 38.26 84.6323 38.4267 85.339 38.76C86.059 39.08 86.6257 39.5467 87.039 40.16C87.4657 40.7733 87.6857 41.4933 87.699 42.32H84.819C84.8057 42.0133 84.7123 41.7267 84.539 41.46C84.379 41.18 84.1523 40.96 83.859 40.8C83.5657 40.6267 83.219 40.54 82.819 40.54C82.4723 40.5267 82.1523 40.58 81.859 40.7C81.579 40.82 81.3523 41 81.179 41.24C81.019 41.4667 80.939 41.7533 80.939 42.1C80.939 42.4333 81.019 42.7133 81.179 42.94C81.3523 43.1667 81.5857 43.3667 81.879 43.54C82.1723 43.7 82.519 43.8533 82.919 44C83.319 44.1333 83.7523 44.2733 84.219 44.42C84.9123 44.66 85.5523 44.9467 86.139 45.28C86.7257 45.6 87.1923 46.02 87.539 46.54C87.8857 47.06 88.059 47.7467 88.059 48.6C88.059 49.3333 87.8657 50.0133 87.479 50.64C87.0923 51.2667 86.5323 51.7733 85.799 52.16C85.079 52.5467 84.179 52.74 83.099 52.74ZM90.3493 52.5V38.5H95.5893C96.7226 38.5 97.6626 38.6933 98.4093 39.08C99.156 39.4667 99.7093 39.9867 100.069 40.64C100.429 41.2933 100.609 42.04 100.609 42.88C100.609 43.6533 100.436 44.3667 100.089 45.02C99.7426 45.6733 99.196 46.2067 98.4493 46.62C97.7026 47.02 96.7493 47.22 95.5893 47.22H93.0493V52.5H90.3493ZM93.0493 45.04H95.4293C96.296 45.04 96.916 44.8467 97.2893 44.46C97.676 44.06 97.8693 43.5333 97.8693 42.88C97.8693 42.1867 97.676 41.6533 97.2893 41.28C96.916 40.8933 96.296 40.7 95.4293 40.7H93.0493V45.04ZM100.23 52.5L105.35 38.5H108.41L113.51 52.5H110.65L106.87 41.58L103.07 52.5H100.23ZM102.49 49.32L103.21 47.22H110.33L111.03 49.32H102.49ZM120.829 52.74C119.429 52.74 118.222 52.44 117.209 51.84C116.209 51.2267 115.435 50.38 114.889 49.3C114.355 48.2067 114.089 46.9467 114.089 45.52C114.089 44.0933 114.355 42.8333 114.889 41.74C115.435 40.6467 116.209 39.7933 117.209 39.18C118.222 38.5667 119.429 38.26 120.829 38.26C122.522 38.26 123.909 38.68 124.989 39.52C126.069 40.36 126.742 41.5467 127.009 43.08H124.069C123.895 42.3333 123.529 41.7533 122.969 41.34C122.422 40.9133 121.702 40.7 120.809 40.7C119.982 40.7 119.269 40.9 118.669 41.3C118.082 41.6867 117.629 42.24 117.309 42.96C116.989 43.6667 116.829 44.52 116.829 45.52C116.829 46.5067 116.989 47.36 117.309 48.08C117.629 48.8 118.082 49.3533 118.669 49.74C119.269 50.1267 119.982 50.32 120.809 50.32C121.702 50.32 122.422 50.1267 122.969 49.74C123.515 49.34 123.875 48.7867 124.049 48.08H127.009C126.742 49.5333 126.069 50.6733 124.989 51.5C123.909 52.3267 122.522 52.74 120.829 52.74ZM129.314 52.5V38.5H138.514V40.68H132.014V44.34H137.914V46.44H132.014V50.32H138.514V52.5H129.314ZM84.419 82.74C83.0857 82.74 81.9257 82.4467 80.939 81.86C79.9523 81.26 79.1857 80.4267 78.639 79.36C78.0923 78.28 77.819 77.0267 77.819 75.6C77.819 74.16 78.099 72.8933 78.659 71.8C79.219 70.6933 80.0257 69.8267 81.079 69.2C82.1323 68.5733 83.3923 68.26 84.859 68.26C86.499 68.26 87.859 68.6533 88.939 69.44C90.0323 70.2267 90.739 71.32 91.059 72.72H88.039C87.839 72.1067 87.4657 71.6267 86.919 71.28C86.3857 70.92 85.6923 70.74 84.839 70.74C83.9323 70.74 83.159 70.94 82.519 71.34C81.879 71.74 81.3923 72.3 81.059 73.02C80.7257 73.74 80.559 74.6 80.559 75.6C80.559 76.6133 80.7257 77.4733 81.059 78.18C81.3923 78.8867 81.8657 79.4267 82.479 79.8C83.1057 80.16 83.839 80.34 84.679 80.34C85.9057 80.34 86.8323 80.0133 87.459 79.36C88.099 78.6933 88.479 77.8333 88.599 76.78H85.159V74.76H91.319V82.5H88.819L88.619 80.72C88.3257 81.16 87.979 81.5333 87.579 81.84C87.1923 82.1333 86.739 82.3533 86.219 82.5C85.699 82.66 85.099 82.74 84.419 82.74ZM92.9054 82.5L98.0254 68.5H101.085L106.185 82.5H103.325L99.5454 71.58L95.7454 82.5H92.9054ZM95.1654 79.32L95.8854 77.22H103.005L103.705 79.32H95.1654ZM113.504 82.74C112.104 82.74 110.898 82.44 109.884 81.84C108.884 81.2267 108.111 80.38 107.564 79.3C107.031 78.2067 106.764 76.9467 106.764 75.52C106.764 74.0933 107.031 72.8333 107.564 71.74C108.111 70.6467 108.884 69.7933 109.884 69.18C110.898 68.5667 112.104 68.26 113.504 68.26C115.198 68.26 116.584 68.68 117.664 69.52C118.744 70.36 119.418 71.5467 119.684 73.08H116.744C116.571 72.3333 116.204 71.7533 115.644 71.34C115.098 70.9133 114.378 70.7 113.484 70.7C112.658 70.7 111.944 70.9 111.344 71.3C110.758 71.6867 110.304 72.24 109.984 72.96C109.664 73.6667 109.504 74.52 109.504 75.52C109.504 76.5067 109.664 77.36 109.984 78.08C110.304 78.8 110.758 79.3533 111.344 79.74C111.944 80.1267 112.658 80.32 113.484 80.32C114.378 80.32 115.098 80.1267 115.644 79.74C116.191 79.34 116.551 78.7867 116.724 78.08H119.684C119.418 79.5333 118.744 80.6733 117.664 81.5C116.584 82.3267 115.198 82.74 113.504 82.74ZM125.113 82.5V70.68H121.013V68.5H131.873V70.68H127.793V82.5H125.113ZM139.207 82.74C138.18 82.74 137.247 82.5333 136.407 82.12C135.567 81.7067 134.9 81.0867 134.407 80.26C133.913 79.4333 133.667 78.38 133.667 77.1V68.5H136.367V77.12C136.367 77.8133 136.48 78.4 136.707 78.88C136.933 79.3467 137.26 79.6933 137.687 79.92C138.127 80.1467 138.647 80.26 139.247 80.26C139.86 80.26 140.38 80.1467 140.807 79.92C141.247 79.6933 141.58 79.3467 141.807 78.88C142.033 78.4 142.147 77.8133 142.147 77.12V68.5H144.847V77.1C144.847 78.38 144.593 79.4333 144.087 80.26C143.58 81.0867 142.893 81.7067 142.027 82.12C141.173 82.5333 140.233 82.74 139.207 82.74ZM147.478 82.5V68.5H152.698C153.832 68.5 154.765 68.6933 155.498 69.08C156.232 69.4667 156.778 69.9867 157.138 70.64C157.498 71.28 157.678 71.9933 157.678 72.78C157.678 73.5267 157.505 74.2267 157.158 74.88C156.812 75.52 156.265 76.04 155.518 76.44C154.785 76.8267 153.838 77.02 152.678 77.02H150.178V82.5H147.478ZM154.738 82.5L151.858 76.34H154.778L157.818 82.5H154.738ZM150.178 75.06H152.538C153.352 75.06 153.952 74.86 154.338 74.46C154.725 74.06 154.918 73.5333 154.918 72.88C154.918 72.2267 154.725 71.7133 154.338 71.34C153.965 70.9533 153.365 70.76 152.538 70.76H150.178V75.06Z" fill="#02000F"/>
</g>
<defs>
<clipPath id="clip0_767_3550">
<rect width="159" height="90" fill="white" transform="translate(0.399902 0.5)"/>
</clipPath>
</defs>
</svg>
