<svg width="120" height="99" viewBox="0 0 120 99" fill="none" xmlns="http://www.w3.org/2000/svg">
<path d="M31.944 29.4996V19.4526H28.459V17.5996H37.69V19.4526H34.222V29.4996H31.944ZM46.8136 29.4996V17.5996H49.1086V29.4996H46.8136ZM39.3166 29.4996V17.5996H41.6116V29.4996H39.3166ZM41.2886 24.3486V22.4956H47.2046V24.3486H41.2886ZM51.4523 29.4996V17.5996H59.2723V19.4526H53.7473V22.5636H58.7623V24.3486H53.7473V27.6466H59.2723V29.4996H51.4523ZM29.173 54.4996V42.5996H33.151C34.5337 42.5996 35.6727 42.8489 36.568 43.3476C37.4747 43.8349 38.1433 44.5263 38.574 45.4216C39.016 46.3056 39.237 47.3483 39.237 48.5496C39.237 49.7509 39.016 50.7993 38.574 51.6946C38.1433 52.5786 37.4803 53.2699 36.585 53.7686C35.6897 54.2559 34.545 54.4996 33.151 54.4996H29.173ZM31.468 52.5276H33.032C34.0067 52.5276 34.7717 52.3689 35.327 52.0516C35.8937 51.7343 36.296 51.2809 36.534 50.6916C36.772 50.0909 36.891 49.3769 36.891 48.5496C36.891 47.7109 36.772 46.9969 36.534 46.4076C36.296 45.8069 35.8937 45.3479 35.327 45.0306C34.7717 44.7133 34.0067 44.5546 33.032 44.5546H31.468V52.5276ZM41.1925 54.4996V42.5996H49.0125V44.4526H43.4875V47.5636H48.5025V49.3486H43.4875V52.6466H49.0125V54.4996H41.1925ZM55.2007 54.7036C54.3393 54.7036 53.5687 54.5563 52.8887 54.2616C52.22 53.9669 51.6873 53.5363 51.2907 52.9696C50.9053 52.4029 50.707 51.7173 50.6957 50.9126H53.1267C53.138 51.2639 53.2287 51.5813 53.3987 51.8646C53.5687 52.1479 53.801 52.3746 54.0957 52.5446C54.4017 52.7033 54.7643 52.7826 55.1837 52.7826C55.5463 52.7826 55.858 52.7259 56.1187 52.6126C56.3907 52.4879 56.6003 52.3179 56.7477 52.1026C56.895 51.8873 56.9687 51.6323 56.9687 51.3376C56.9687 50.9976 56.8837 50.7143 56.7137 50.4876C56.555 50.2609 56.3283 50.0683 56.0337 49.9096C55.7503 49.7509 55.416 49.6093 55.0307 49.4846C54.6567 49.3486 54.26 49.2069 53.8407 49.0596C52.9 48.7536 52.1803 48.3456 51.6817 47.8356C51.1943 47.3256 50.9507 46.6513 50.9507 45.8126C50.9507 45.0986 51.1207 44.4866 51.4607 43.9766C51.812 43.4666 52.2937 43.0756 52.9057 42.8036C53.5177 42.5316 54.2147 42.3956 54.9967 42.3956C55.8013 42.3956 56.504 42.5373 57.1047 42.8206C57.7167 43.0926 58.1983 43.4893 58.5497 44.0106C58.9123 44.5319 59.0993 45.1439 59.1107 45.8466H56.6627C56.6513 45.5859 56.572 45.3423 56.4247 45.1156C56.2887 44.8776 56.096 44.6906 55.8467 44.5546C55.5973 44.4073 55.3027 44.3336 54.9627 44.3336C54.668 44.3223 54.396 44.3676 54.1467 44.4696C53.9087 44.5716 53.716 44.7246 53.5687 44.9286C53.4327 45.1213 53.3647 45.3649 53.3647 45.6596C53.3647 45.9429 53.4327 46.1809 53.5687 46.3736C53.716 46.5663 53.9143 46.7363 54.1637 46.8836C54.413 47.0196 54.7077 47.1499 55.0477 47.2746C55.3877 47.3879 55.756 47.5069 56.1527 47.6316C56.742 47.8356 57.286 48.0793 57.7847 48.3626C58.2833 48.6346 58.68 48.9916 58.9747 49.4336C59.2693 49.8756 59.4167 50.4593 59.4167 51.1846C59.4167 51.8079 59.2523 52.3859 58.9237 52.9186C58.595 53.4513 58.119 53.8819 57.4957 54.2106C56.8837 54.5393 56.1187 54.7036 55.2007 54.7036ZM61.3634 54.4996V42.5996H63.6584V54.4996H61.3634ZM71.2143 54.7036C70.0809 54.7036 69.0949 54.4543 68.2563 53.9556C67.4176 53.4456 66.7659 52.7373 66.3013 51.8306C65.8366 50.9126 65.6043 49.8473 65.6043 48.6346C65.6043 47.4106 65.8423 46.3339 66.3183 45.4046C66.7943 44.4639 67.4799 43.7273 68.3753 43.1946C69.2706 42.6619 70.3416 42.3956 71.5883 42.3956C72.9823 42.3956 74.1383 42.7299 75.0563 43.3986C75.9856 44.0673 76.5863 44.9966 76.8583 46.1866H74.2913C74.1213 45.6653 73.8039 45.2573 73.3393 44.9626C72.8859 44.6566 72.2966 44.5036 71.5713 44.5036C70.8006 44.5036 70.1433 44.6736 69.5993 45.0136C69.0553 45.3536 68.6416 45.8296 68.3583 46.4416C68.0749 47.0536 67.9333 47.7846 67.9333 48.6346C67.9333 49.4959 68.0749 50.2269 68.3583 50.8276C68.6416 51.4283 69.0439 51.8873 69.5653 52.2046C70.0979 52.5106 70.7213 52.6636 71.4353 52.6636C72.4779 52.6636 73.2656 52.3859 73.7983 51.8306C74.3423 51.2639 74.6653 50.5329 74.7673 49.6376H71.8433V47.9206H77.0793V54.4996H74.9543L74.7843 52.9866C74.5349 53.3606 74.2403 53.6779 73.9003 53.9386C73.5716 54.1879 73.1863 54.3749 72.7443 54.4996C72.3023 54.6356 71.7923 54.7036 71.2143 54.7036ZM79.2267 54.4996V42.5996H81.5217L86.9957 50.8106V42.5996H89.2907V54.4996H86.9957L81.5217 46.3056V54.4996H79.2267ZM33.27 79.7036C32.4087 79.7036 31.638 79.5563 30.958 79.2616C30.2893 78.9669 29.7567 78.5363 29.36 77.9696C28.9747 77.4029 28.7763 76.7173 28.765 75.9126H31.196C31.2073 76.2639 31.298 76.5813 31.468 76.8646C31.638 77.1479 31.8703 77.3746 32.165 77.5446C32.471 77.7033 32.8337 77.7826 33.253 77.7826C33.6157 77.7826 33.9273 77.7259 34.188 77.6126C34.46 77.4879 34.6697 77.3179 34.817 77.1026C34.9643 76.8873 35.038 76.6323 35.038 76.3376C35.038 75.9976 34.953 75.7143 34.783 75.4876C34.6243 75.2609 34.3977 75.0683 34.103 74.9096C33.8197 74.7509 33.4853 74.6093 33.1 74.4846C32.726 74.3486 32.3293 74.2069 31.91 74.0596C30.9693 73.7536 30.2497 73.3456 29.751 72.8356C29.2637 72.3256 29.02 71.6513 29.02 70.8126C29.02 70.0986 29.19 69.4866 29.53 68.9766C29.8813 68.4666 30.363 68.0756 30.975 67.8036C31.587 67.5316 32.284 67.3956 33.066 67.3956C33.8707 67.3956 34.5733 67.5373 35.174 67.8206C35.786 68.0926 36.2677 68.4893 36.619 69.0106C36.9817 69.5319 37.1687 70.1439 37.18 70.8466H34.732C34.7207 70.5859 34.6413 70.3423 34.494 70.1156C34.358 69.8776 34.1653 69.6906 33.916 69.5546C33.6667 69.4073 33.372 69.3336 33.032 69.3336C32.7373 69.3223 32.4653 69.3676 32.216 69.4696C31.978 69.5716 31.7853 69.7246 31.638 69.9286C31.502 70.1213 31.434 70.3649 31.434 70.6596C31.434 70.9429 31.502 71.1809 31.638 71.3736C31.7853 71.5663 31.9837 71.7363 32.233 71.8836C32.4823 72.0196 32.777 72.1499 33.117 72.2746C33.457 72.3879 33.8253 72.5069 34.222 72.6316C34.8113 72.8356 35.3553 73.0793 35.854 73.3626C36.3527 73.6346 36.7493 73.9916 37.044 74.4336C37.3387 74.8756 37.486 75.4593 37.486 76.1846C37.486 76.8079 37.3217 77.3859 36.993 77.9186C36.6643 78.4513 36.1883 78.8819 35.565 79.2106C34.953 79.5393 34.188 79.7036 33.27 79.7036ZM42.0876 79.4996V69.4526H38.6026V67.5996H47.8336V69.4526H44.3656V79.4996H42.0876ZM54.0671 79.7036C53.1944 79.7036 52.4011 79.5279 51.6871 79.1766C50.9731 78.8253 50.4064 78.2983 49.9871 77.5956C49.5678 76.8929 49.3581 75.9976 49.3581 74.9096V67.5996H51.6531V74.9266C51.6531 75.5159 51.7494 76.0146 51.9421 76.4226C52.1348 76.8193 52.4124 77.1139 52.7751 77.3066C53.1491 77.4993 53.5911 77.5956 54.1011 77.5956C54.6224 77.5956 55.0644 77.4993 55.4271 77.3066C55.8011 77.1139 56.0844 76.8193 56.2771 76.4226C56.4698 76.0146 56.5661 75.5159 56.5661 74.9266V67.5996H58.8611V74.9096C58.8611 75.9976 58.6458 76.8929 58.2151 77.5956C57.7844 78.2983 57.2008 78.8253 56.4641 79.1766C55.7388 79.5279 54.9398 79.7036 54.0671 79.7036ZM61.0978 79.4996V67.5996H65.0758C66.4585 67.5996 67.5975 67.8489 68.4928 68.3476C69.3995 68.8349 70.0681 69.5263 70.4988 70.4216C70.9408 71.3056 71.1618 72.3483 71.1618 73.5496C71.1618 74.7509 70.9408 75.7993 70.4988 76.6946C70.0681 77.5786 69.4051 78.2699 68.5098 78.7686C67.6145 79.2559 66.4698 79.4996 65.0758 79.4996H61.0978ZM63.3928 77.5276H64.9568C65.9315 77.5276 66.6965 77.3689 67.2518 77.0516C67.8185 76.7343 68.2208 76.2809 68.4588 75.6916C68.6968 75.0909 68.8158 74.3769 68.8158 73.5496C68.8158 72.7109 68.6968 71.9969 68.4588 71.4076C68.2208 70.8069 67.8185 70.3479 67.2518 70.0306C66.6965 69.7133 65.9315 69.5546 64.9568 69.5546H63.3928V77.5276ZM73.1173 79.4996V67.5996H75.4123V79.4996H73.1173ZM83.2402 79.7036C82.0842 79.7036 81.0642 79.4429 80.1802 78.9216C79.2962 78.4003 78.6048 77.6806 78.1062 76.7626C77.6075 75.8333 77.3582 74.7623 77.3582 73.5496C77.3582 72.3369 77.6075 71.2716 78.1062 70.3536C78.6048 69.4243 79.2962 68.6989 80.1802 68.1776C81.0642 67.6563 82.0842 67.3956 83.2402 67.3956C84.4075 67.3956 85.4332 67.6563 86.3172 68.1776C87.2012 68.6989 87.8868 69.4243 88.3742 70.3536C88.8728 71.2716 89.1222 72.3369 89.1222 73.5496C89.1222 74.7623 88.8728 75.8333 88.3742 76.7626C87.8868 77.6806 87.2012 78.4003 86.3172 78.9216C85.4332 79.4429 84.4075 79.7036 83.2402 79.7036ZM83.2402 77.6466C83.9655 77.6466 84.5888 77.4823 85.1102 77.1536C85.6428 76.8136 86.0565 76.3376 86.3512 75.7256C86.6458 75.1136 86.7932 74.3883 86.7932 73.5496C86.7932 72.6996 86.6458 71.9743 86.3512 71.3736C86.0565 70.7616 85.6428 70.2913 85.1102 69.9626C84.5888 69.6339 83.9655 69.4696 83.2402 69.4696C82.5262 69.4696 81.9028 69.6339 81.3702 69.9626C80.8375 70.2913 80.4238 70.7616 80.1292 71.3736C79.8345 71.9743 79.6872 72.6996 79.6872 73.5496C79.6872 74.3883 79.8345 75.1136 80.1292 75.7256C80.4238 76.3376 80.8375 76.8136 81.3702 77.1536C81.9028 77.4823 82.5262 77.6466 83.2402 77.6466Z" fill="#02000F"/>
<path d="M101.026 30.4668V2.40521H118.678V97H1V2.40521H68.891M73.4171 1.5C73.4171 10.0995 78.2147 27.8417 97.4052 30.0142" stroke="#02000F" stroke-width="2"/>
</svg>
