<svg width="246" height="101" viewBox="0 0 246 101" fill="none" xmlns="http://www.w3.org/2000/svg">
<g clip-path="url(#clip0_767_3547)">
<path d="M0.200195 30.6748H53.8587M53.8587 30.6748V90.4309M53.8587 30.6748H80.4848M107.111 30.6748H80.4848M80.4848 30.6748V55.065M39.2246 14.0081V47.3415M39.2246 47.3415V101M39.2246 47.3415H62.8018V90.4309M20.1189 90.4309H53.8587M53.8587 90.4309H62.8018M106.298 90.4309H62.8018M94.5091 11.9756V61.5691M94.5091 61.5691V96.122M94.5091 61.5691L81.0945 55.065M37.1921 53.439H121.338M80.4848 55.065V79.4553H66.0539V62.7886L80.4848 55.065ZM72.1514 95.3089V12.7886M68.8994 1L122.558 66.8537" stroke="#02000F" stroke-width="2"/>
<path d="M137.001 38.1199C136.314 38.1199 135.721 37.9699 135.221 37.6699C134.728 37.3632 134.344 36.9399 134.071 36.3999C133.804 35.8532 133.671 35.2199 133.671 34.4999C133.671 33.7866 133.804 33.1566 134.071 32.6099C134.344 32.0632 134.728 31.6399 135.221 31.3399C135.721 31.0332 136.314 30.8799 137.001 30.8799C137.821 30.8799 138.484 31.0766 138.991 31.4699C139.504 31.8632 139.831 32.4166 139.971 33.1299H138.871C138.771 32.7166 138.564 32.3866 138.251 32.1399C137.944 31.8932 137.528 31.7699 137.001 31.7699C136.528 31.7699 136.118 31.8799 135.771 32.0999C135.424 32.3199 135.158 32.6332 134.971 33.0399C134.784 33.4466 134.691 33.9332 134.691 34.4999C134.691 35.0666 134.784 35.5566 134.971 35.9699C135.158 36.3766 135.424 36.6899 135.771 36.9099C136.118 37.1232 136.528 37.2299 137.001 37.2299C137.528 37.2299 137.944 37.1132 138.251 36.8799C138.564 36.6399 138.771 36.3166 138.871 35.9099H139.971C139.831 36.6032 139.504 37.1466 138.991 37.5399C138.484 37.9266 137.821 38.1199 137.001 38.1199ZM147.667 37.9999V30.9999H150.037C150.591 30.9999 151.044 31.0932 151.397 31.2799C151.751 31.4666 152.011 31.7166 152.177 32.0299C152.351 32.3366 152.437 32.6866 152.437 33.0799C152.437 33.4532 152.351 33.7999 152.177 34.1199C152.011 34.4332 151.747 34.6866 151.387 34.8799C151.027 35.0666 150.567 35.1599 150.007 35.1599H148.667V37.9999H147.667ZM151.347 37.9999L149.837 34.8899H150.937L152.507 37.9999H151.347ZM148.667 34.3999H149.967C150.461 34.3999 150.824 34.2799 151.057 34.0399C151.291 33.7932 151.407 33.4799 151.407 33.0999C151.407 32.7132 151.294 32.4066 151.067 32.1799C150.841 31.9532 150.474 31.8399 149.967 31.8399H148.667V34.3999ZM160.232 37.9999V30.9999H164.652V31.8199H161.232V34.0599H164.352V34.8599H161.232V37.1799H164.652V37.9999H160.232ZM171.995 37.9999L174.565 30.9999H175.655L178.225 37.9999H177.155L175.105 32.1999L173.045 37.9999H171.995ZM173.155 36.2699L173.435 35.4699H176.725L177.005 36.2699H173.155ZM186.581 37.9999V31.8199H184.511V30.9999H189.661V31.8199H187.581V37.9999H186.581ZM197.173 37.9999V30.9999H198.173V37.9999H197.173ZM208.204 37.9999L205.604 30.9999H206.684L208.804 36.9599L210.944 30.9999H212.004L209.404 37.9999H208.204ZM219.431 37.9999V30.9999H223.851V31.8199H220.431V34.0599H223.551V34.8599H220.431V37.1799H223.851V37.9999H219.431ZM134.443 57.9999V45.3999H139.609C140.485 45.3999 141.223 45.5379 141.823 45.8139C142.423 46.0899 142.873 46.4739 143.173 46.9659C143.485 47.4459 143.641 48.0039 143.641 48.6399C143.641 49.2759 143.503 49.8099 143.227 50.2419C142.951 50.6739 142.585 51.0099 142.129 51.2499C141.685 51.4779 141.193 51.6099 140.653 51.6459L140.941 51.4479C141.517 51.4719 142.027 51.6279 142.471 51.9159C142.927 52.1919 143.281 52.5639 143.533 53.0319C143.797 53.4999 143.929 54.0099 143.929 54.5619C143.929 55.2339 143.767 55.8279 143.443 56.3439C143.119 56.8599 142.651 57.2679 142.039 57.5679C141.427 57.8559 140.677 57.9999 139.789 57.9999H134.443ZM136.873 56.0199H139.393C140.053 56.0199 140.563 55.8699 140.923 55.5699C141.283 55.2699 141.463 54.8379 141.463 54.2739C141.463 53.7099 141.277 53.2719 140.905 52.9599C140.533 52.6359 140.017 52.4739 139.357 52.4739H136.873V56.0199ZM136.873 50.6559H139.213C139.849 50.6559 140.329 50.5119 140.653 50.2239C140.989 49.9359 141.157 49.5279 141.157 48.9999C141.157 48.4839 140.989 48.0819 140.653 47.7939C140.329 47.4939 139.843 47.3439 139.195 47.3439H136.873V50.6559ZM154.4 58.2159C153.476 58.2159 152.636 58.0299 151.88 57.6579C151.124 57.2859 150.524 56.7279 150.08 55.9839C149.636 55.2399 149.414 54.2919 149.414 53.1399V45.3999H151.844V53.1579C151.844 53.7819 151.946 54.3099 152.15 54.7419C152.354 55.1619 152.648 55.4739 153.032 55.6779C153.428 55.8819 153.896 55.9839 154.436 55.9839C154.988 55.9839 155.456 55.8819 155.84 55.6779C156.236 55.4739 156.536 55.1619 156.74 54.7419C156.944 54.3099 157.046 53.7819 157.046 53.1579V45.3999H159.476V53.1399C159.476 54.2919 159.248 55.2399 158.792 55.9839C158.336 56.7279 157.718 57.2859 156.938 57.6579C156.17 58.0299 155.324 58.2159 154.4 58.2159ZM165.444 57.9999V45.3999H167.874V57.9999H165.444ZM173.948 57.9999V45.3999H176.378V56.1099H181.904V57.9999H173.948ZM187.585 57.9999V45.3999H191.797C193.261 45.3999 194.467 45.6639 195.415 46.1919C196.375 46.7079 197.083 47.4399 197.539 48.3879C198.007 49.3239 198.241 50.4279 198.241 51.6999C198.241 52.9719 198.007 54.0819 197.539 55.0299C197.083 55.9659 196.381 56.6979 195.433 57.2259C194.485 57.7419 193.273 57.9999 191.797 57.9999H187.585ZM190.015 55.9119H191.671C192.703 55.9119 193.513 55.7439 194.101 55.4079C194.701 55.0719 195.127 54.5919 195.379 53.9679C195.631 53.3319 195.757 52.5759 195.757 51.6999C195.757 50.8119 195.631 50.0559 195.379 49.4319C195.127 48.7959 194.701 48.3099 194.101 47.9739C193.513 47.6379 192.703 47.4699 191.671 47.4699H190.015V55.9119ZM208.79 58.2159C207.866 58.2159 207.026 58.0299 206.27 57.6579C205.514 57.2859 204.914 56.7279 204.47 55.9839C204.026 55.2399 203.804 54.2919 203.804 53.1399V45.3999H206.234V53.1579C206.234 53.7819 206.336 54.3099 206.54 54.7419C206.744 55.1619 207.038 55.4739 207.422 55.6779C207.818 55.8819 208.286 55.9839 208.826 55.9839C209.378 55.9839 209.846 55.8819 210.23 55.6779C210.626 55.4739 210.926 55.1619 211.13 54.7419C211.334 54.3099 211.436 53.7819 211.436 53.1579V45.3999H213.866V53.1399C213.866 54.2919 213.638 55.2399 213.182 55.9839C212.726 56.7279 212.108 57.2859 211.328 57.6579C210.56 58.0299 209.714 58.2159 208.79 58.2159ZM219.834 57.9999V45.3999H224.532C225.552 45.3999 226.392 45.5739 227.052 45.9219C227.712 46.2699 228.204 46.7379 228.528 47.3259C228.852 47.9019 229.014 48.5439 229.014 49.2519C229.014 49.9239 228.858 50.5539 228.546 51.1419C228.234 51.7179 227.742 52.1859 227.07 52.5459C226.41 52.8939 225.558 53.0679 224.514 53.0679H222.264V57.9999H219.834ZM226.368 57.9999L223.776 52.4559H226.404L229.14 57.9999H226.368ZM222.264 51.3039H224.388C225.12 51.3039 225.66 51.1239 226.008 50.7639C226.356 50.4039 226.53 49.9299 226.53 49.3419C226.53 48.7539 226.356 48.2919 226.008 47.9559C225.672 47.6079 225.132 47.4339 224.388 47.4339H222.264V51.3039ZM239.127 58.2159C238.215 58.2159 237.399 58.0599 236.679 57.7479C235.971 57.4359 235.407 56.9799 234.987 56.3799C234.579 55.7799 234.369 55.0539 234.357 54.2019H236.931C236.943 54.5739 237.039 54.9099 237.219 55.2099C237.399 55.5099 237.645 55.7499 237.957 55.9299C238.281 56.0979 238.665 56.1819 239.109 56.1819C239.493 56.1819 239.823 56.1219 240.099 56.0019C240.387 55.8699 240.609 55.6899 240.765 55.4619C240.921 55.2339 240.999 54.9639 240.999 54.6519C240.999 54.2919 240.909 53.9919 240.729 53.7519C240.561 53.5119 240.321 53.3079 240.009 53.1399C239.709 52.9719 239.355 52.8219 238.947 52.6899C238.551 52.5459 238.131 52.3959 237.687 52.2399C236.691 51.9159 235.929 51.4839 235.401 50.9439C234.885 50.4039 234.627 49.6899 234.627 48.8019C234.627 48.0459 234.807 47.3979 235.167 46.8579C235.539 46.3179 236.049 45.9039 236.697 45.6159C237.345 45.3279 238.083 45.1839 238.911 45.1839C239.763 45.1839 240.507 45.3339 241.143 45.6339C241.791 45.9219 242.301 46.3419 242.673 46.8939C243.057 47.4459 243.255 48.0939 243.267 48.8379H240.675C240.663 48.5619 240.579 48.3039 240.423 48.0639C240.279 47.8119 240.075 47.6139 239.811 47.4699C239.547 47.3139 239.235 47.2359 238.875 47.2359C238.563 47.2239 238.275 47.2719 238.011 47.3799C237.759 47.4879 237.555 47.6499 237.399 47.8659C237.255 48.0699 237.183 48.3279 237.183 48.6399C237.183 48.9399 237.255 49.1919 237.399 49.3959C237.555 49.5999 237.765 49.7799 238.029 49.9359C238.293 50.0799 238.605 50.2179 238.965 50.3499C239.325 50.4699 239.715 50.5959 240.135 50.7279C240.759 50.9439 241.335 51.2019 241.863 51.5019C242.391 51.7899 242.811 52.1679 243.123 52.6359C243.435 53.1039 243.591 53.7219 243.591 54.4899C243.591 55.1499 243.417 55.7619 243.069 56.3259C242.721 56.8899 242.217 57.3459 241.557 57.6939C240.909 58.0419 240.099 58.2159 239.127 58.2159ZM133.481 77.9999L136.051 70.9999H137.141L139.711 77.9999H138.641L136.591 72.1999L134.531 77.9999H133.481ZM134.641 76.2699L134.921 75.4699H138.211L138.491 76.2699H134.641ZM147.208 77.9999V70.9999H149.578C150.132 70.9999 150.585 71.0932 150.938 71.2799C151.292 71.4666 151.552 71.7166 151.718 72.0299C151.892 72.3366 151.978 72.6866 151.978 73.0799C151.978 73.4532 151.892 73.7999 151.718 74.1199C151.552 74.4332 151.288 74.6866 150.928 74.8799C150.568 75.0666 150.108 75.1599 149.548 75.1599H148.208V77.9999H147.208ZM150.888 77.9999L149.378 74.8899H150.478L152.048 77.9999H150.888ZM148.208 74.3999H149.508C150.002 74.3999 150.365 74.2799 150.598 74.0399C150.832 73.7932 150.948 73.4799 150.948 73.0999C150.948 72.7132 150.835 72.4066 150.608 72.1799C150.382 71.9532 150.015 71.8399 149.508 71.8399H148.208V74.3999ZM162.843 78.1199C162.156 78.1199 161.563 77.9699 161.063 77.6699C160.569 77.3632 160.186 76.9399 159.913 76.3999C159.646 75.8532 159.513 75.2199 159.513 74.4999C159.513 73.7866 159.646 73.1566 159.913 72.6099C160.186 72.0632 160.569 71.6399 161.063 71.3399C161.563 71.0332 162.156 70.8799 162.843 70.8799C163.663 70.8799 164.326 71.0766 164.833 71.4699C165.346 71.8632 165.673 72.4166 165.813 73.1299H164.713C164.613 72.7166 164.406 72.3866 164.093 72.1399C163.786 71.8932 163.369 71.7699 162.843 71.7699C162.369 71.7699 161.959 71.8799 161.613 72.0999C161.266 72.3199 160.999 72.6332 160.813 73.0399C160.626 73.4466 160.533 73.9332 160.533 74.4999C160.533 75.0666 160.626 75.5566 160.813 75.9699C160.999 76.3766 161.266 76.6899 161.613 76.9099C161.959 77.1232 162.369 77.2299 162.843 77.2299C163.369 77.2299 163.786 77.1132 164.093 76.8799C164.406 76.6399 164.613 76.3166 164.713 75.9099H165.813C165.673 76.6032 165.346 77.1466 164.833 77.5399C164.326 77.9266 163.663 78.1199 162.843 78.1199ZM177.959 77.9999V70.9999H178.959V77.9999H177.959ZM173.509 77.9999V70.9999H174.509V77.9999H173.509ZM174.339 74.8399V74.0199H178.179V74.8399H174.339ZM186.923 77.9999V70.9999H187.923V77.9999H186.923ZM197.514 77.9999V71.8199H195.444V70.9999H200.594V71.8199H198.514V77.9999H197.514ZM208.107 77.9999V70.9999H212.527V71.8199H209.107V74.0599H212.227V74.8599H209.107V77.1799H212.527V77.9999H208.107ZM223.39 78.1199C222.703 78.1199 222.11 77.9699 221.61 77.6699C221.116 77.3632 220.733 76.9399 220.46 76.3999C220.193 75.8532 220.06 75.2199 220.06 74.4999C220.06 73.7866 220.193 73.1566 220.46 72.6099C220.733 72.0632 221.116 71.6399 221.61 71.3399C222.11 71.0332 222.703 70.8799 223.39 70.8799C224.21 70.8799 224.873 71.0766 225.38 71.4699C225.893 71.8632 226.22 72.4166 226.36 73.1299H225.26C225.16 72.7166 224.953 72.3866 224.64 72.1399C224.333 71.8932 223.916 71.7699 223.39 71.7699C222.916 71.7699 222.506 71.8799 222.16 72.0999C221.813 72.3199 221.546 72.6332 221.36 73.0399C221.173 73.4466 221.08 73.9332 221.08 74.4999C221.08 75.0666 221.173 75.5566 221.36 75.9699C221.546 76.3766 221.813 76.6899 222.16 76.9099C222.506 77.1232 222.916 77.2299 223.39 77.2299C223.916 77.2299 224.333 77.1132 224.64 76.8799C224.953 76.6399 225.16 76.3166 225.26 75.9099H226.36C226.22 76.6032 225.893 77.1466 225.38 77.5399C224.873 77.9266 224.21 78.1199 223.39 78.1199ZM235.549 77.9999V71.8199H233.479V70.9999H238.629V71.8199H236.549V77.9999H235.549Z" fill="#02000F"/>
</g>
<defs>
<clipPath id="clip0_767_3547">
<rect width="245" height="101" fill="white" transform="translate(0.200195)"/>
</clipPath>
</defs>
</svg>
