<svg width="187" height="63" viewBox="0 0 187 63" fill="none" xmlns="http://www.w3.org/2000/svg">
<path d="M1 23.9345V60L6.18436 55.36V27.9418L30 9.80364L53.9777 27.9418V55.36L59 60V23.9345L30 2L1 23.9345Z" stroke="#02000F" stroke-width="2"/>
<path d="M15.0938 34.4801V49.6656L20.44 47.9783V38.4874L29.9987 31.3165L39.7194 38.4874V47.9783L44.7417 49.6656V34.4801L29.9987 23.9346L15.0938 34.4801Z" stroke="#02000F" stroke-width="2"/>
<path d="M75.4414 28.9998L80.5614 14.9998H83.6214L88.7214 28.9998H85.8614L82.0814 18.0798L78.2814 28.9998H75.4414ZM77.7014 25.8198L78.4214 23.7198H85.5414L86.2414 25.8198H77.7014ZM90.5611 28.9998V14.9998H95.7811C96.9144 14.9998 97.8478 15.1931 98.5811 15.5798C99.3144 15.9665 99.8611 16.4865 100.221 17.1398C100.581 17.7798 100.761 18.4931 100.761 19.2798C100.761 20.0265 100.587 20.7265 100.241 21.3798C99.8944 22.0198 99.3478 22.5398 98.6011 22.9398C97.8678 23.3265 96.9211 23.5198 95.7611 23.5198H93.2611V28.9998H90.5611ZM97.8211 28.9998L94.9411 22.8398H97.8611L100.901 28.9998H97.8211ZM93.2611 21.5598H95.6211C96.4344 21.5598 97.0344 21.3598 97.4211 20.9598C97.8078 20.5598 98.0011 20.0331 98.0011 19.3798C98.0011 18.7265 97.8078 18.2131 97.4211 17.8398C97.0478 17.4531 96.4478 17.2598 95.6211 17.2598H93.2611V21.5598ZM109.458 29.2398C108.058 29.2398 106.851 28.9398 105.838 28.3398C104.838 27.7265 104.065 26.8798 103.518 25.7998C102.985 24.7065 102.718 23.4465 102.718 22.0198C102.718 20.5931 102.985 19.3331 103.518 18.2398C104.065 17.1465 104.838 16.2931 105.838 15.6798C106.851 15.0665 108.058 14.7598 109.458 14.7598C111.151 14.7598 112.538 15.1798 113.618 16.0198C114.698 16.8598 115.371 18.0465 115.638 19.5798H112.698C112.525 18.8331 112.158 18.2531 111.598 17.8398C111.051 17.4131 110.331 17.1998 109.438 17.1998C108.611 17.1998 107.898 17.3998 107.298 17.7998C106.711 18.1865 106.258 18.7398 105.938 19.4598C105.618 20.1665 105.458 21.0198 105.458 22.0198C105.458 23.0065 105.618 23.8598 105.938 24.5798C106.258 25.2998 106.711 25.8531 107.298 26.2398C107.898 26.6265 108.611 26.8198 109.438 26.8198C110.331 26.8198 111.051 26.6265 111.598 26.2398C112.145 25.8398 112.505 25.2865 112.678 24.5798H115.638C115.371 26.0331 114.698 27.1731 113.618 27.9998C112.538 28.8265 111.151 29.2398 109.458 29.2398ZM126.764 28.9998V14.9998H129.464V28.9998H126.764ZM117.944 28.9998V14.9998H120.644V28.9998H117.944ZM120.264 22.9398V20.7598H127.224V22.9398H120.264ZM132.221 28.9998V14.9998H134.921V28.9998H132.221ZM140.93 28.9998V17.1798H136.83V14.9998H147.69V17.1798H143.61V28.9998H140.93ZM149.604 28.9998V14.9998H158.804V17.1798H152.304V20.8398H158.204V22.9398H152.304V26.8198H158.804V28.9998H149.604ZM167.544 29.2398C166.144 29.2398 164.937 28.9398 163.924 28.3398C162.924 27.7265 162.15 26.8798 161.604 25.7998C161.07 24.7065 160.804 23.4465 160.804 22.0198C160.804 20.5931 161.07 19.3331 161.604 18.2398C162.15 17.1465 162.924 16.2931 163.924 15.6798C164.937 15.0665 166.144 14.7598 167.544 14.7598C169.237 14.7598 170.624 15.1798 171.704 16.0198C172.784 16.8598 173.457 18.0465 173.724 19.5798H170.784C170.61 18.8331 170.244 18.2531 169.684 17.8398C169.137 17.4131 168.417 17.1998 167.524 17.1998C166.697 17.1998 165.984 17.3998 165.384 17.7998C164.797 18.1865 164.344 18.7398 164.024 19.4598C163.704 20.1665 163.544 21.0198 163.544 22.0198C163.544 23.0065 163.704 23.8598 164.024 24.5798C164.344 25.2998 164.797 25.8531 165.384 26.2398C165.984 26.6265 166.697 26.8198 167.524 26.8198C168.417 26.8198 169.137 26.6265 169.684 26.2398C170.23 25.8398 170.59 25.2865 170.764 24.5798H173.724C173.457 26.0331 172.784 27.1731 171.704 27.9998C170.624 28.8265 169.237 29.2398 167.544 29.2398ZM179.153 28.9998V17.1798H175.053V14.9998H185.913V17.1798H181.833V28.9998H179.153ZM75.6094 48.9998V43.3998H77.1214C77.7721 43.3998 78.3081 43.5145 78.7294 43.7438C79.1561 43.9731 79.4707 44.2985 79.6734 44.7198C79.8814 45.1358 79.9854 45.6318 79.9854 46.2078C79.9854 46.7838 79.8814 47.2798 79.6734 47.6958C79.4707 48.1118 79.1561 48.4345 78.7294 48.6638C78.3081 48.8878 77.7721 48.9998 77.1214 48.9998H75.6094ZM76.4094 48.3278H77.0894C77.6014 48.3278 78.0094 48.2425 78.3134 48.0718C78.6174 47.9011 78.8334 47.6585 78.9614 47.3438C79.0947 47.0238 79.1614 46.6451 79.1614 46.2078C79.1614 45.7651 79.0947 45.3838 78.9614 45.0638C78.8334 44.7438 78.6174 44.4985 78.3134 44.3278C78.0094 44.1571 77.6014 44.0718 77.0894 44.0718H76.4094V48.3278ZM86.1766 48.9998V43.3998H89.7126V44.0558H86.9766V45.8478H89.4726V46.4878H86.9766V48.3438H89.7126V48.9998H86.1766ZM97.818 49.0958C97.4126 49.0958 97.0553 49.0238 96.746 48.8798C96.4366 48.7305 96.1966 48.5225 96.026 48.2558C95.8553 47.9891 95.77 47.6771 95.77 47.3198H96.61C96.61 47.5225 96.658 47.7091 96.754 47.8798C96.85 48.0451 96.986 48.1785 97.162 48.2798C97.3433 48.3758 97.562 48.4238 97.818 48.4238C98.042 48.4238 98.234 48.3865 98.394 48.3118C98.5593 48.2371 98.6846 48.1358 98.77 48.0078C98.8553 47.8745 98.898 47.7225 98.898 47.5518C98.898 47.3705 98.8553 47.2185 98.77 47.0958C98.69 46.9678 98.578 46.8611 98.434 46.7758C98.29 46.6905 98.1193 46.6131 97.922 46.5438C97.73 46.4745 97.522 46.4051 97.298 46.3358C96.8286 46.1865 96.4846 45.9971 96.266 45.7678C96.0473 45.5331 95.938 45.2318 95.938 44.8638C95.938 44.5491 96.01 44.2771 96.154 44.0478C96.3033 43.8131 96.514 43.6318 96.786 43.5038C97.058 43.3705 97.3753 43.3038 97.738 43.3038C98.106 43.3038 98.4233 43.3705 98.69 43.5038C98.962 43.6371 99.1753 43.8211 99.33 44.0558C99.4846 44.2905 99.5646 44.5651 99.57 44.8798H98.722C98.722 44.7358 98.6846 44.5945 98.61 44.4558C98.5353 44.3171 98.4233 44.2051 98.274 44.1198C98.1246 44.0291 97.9406 43.9838 97.722 43.9838C97.5406 43.9785 97.378 44.0078 97.234 44.0718C97.09 44.1358 96.9753 44.2291 96.89 44.3518C96.81 44.4745 96.77 44.6211 96.77 44.7918C96.77 44.9625 96.8073 45.1011 96.882 45.2078C96.9566 45.3091 97.0606 45.3971 97.194 45.4718C97.3326 45.5465 97.4953 45.6158 97.682 45.6798C97.8686 45.7385 98.074 45.8051 98.298 45.8798C98.57 45.9705 98.8153 46.0825 99.034 46.2158C99.2526 46.3438 99.4233 46.5118 99.546 46.7198C99.674 46.9225 99.738 47.1838 99.738 47.5038C99.738 47.7811 99.666 48.0398 99.522 48.2798C99.378 48.5198 99.1646 48.7171 98.882 48.8718C98.5993 49.0211 98.2446 49.0958 97.818 49.0958ZM105.943 48.9998V43.3998H106.743V48.9998H105.943ZM115.575 49.0958C115.047 49.0958 114.586 48.9758 114.191 48.7358C113.796 48.4958 113.49 48.1598 113.271 47.7278C113.052 47.2958 112.943 46.7918 112.943 46.2158C112.943 45.6451 113.052 45.1411 113.271 44.7038C113.495 44.2665 113.812 43.9251 114.223 43.6798C114.639 43.4291 115.13 43.3038 115.695 43.3038C116.335 43.3038 116.866 43.4585 117.287 43.7678C117.714 44.0718 117.988 44.4958 118.111 45.0398H117.199C117.119 44.7305 116.951 44.4878 116.695 44.3118C116.439 44.1305 116.103 44.0398 115.687 44.0398C115.292 44.0398 114.948 44.1278 114.655 44.3038C114.367 44.4798 114.146 44.7305 113.991 45.0558C113.836 45.3811 113.759 45.7678 113.759 46.2158C113.759 46.6691 113.836 47.0585 113.991 47.3838C114.146 47.7091 114.364 47.9571 114.647 48.1278C114.93 48.2985 115.255 48.3838 115.623 48.3838C116.188 48.3838 116.615 48.2211 116.903 47.8958C117.191 47.5705 117.356 47.1358 117.399 46.5918H115.855V45.9758H118.215V48.9998H117.479L117.415 48.1438C117.282 48.3518 117.13 48.5278 116.959 48.6718C116.794 48.8105 116.599 48.9171 116.375 48.9918C116.151 49.0611 115.884 49.0958 115.575 49.0958ZM124.507 48.9998V43.3998H125.307L128.163 47.7038V43.3998H128.963V48.9998H128.163L125.307 44.7038V48.9998H124.507ZM142.657 48.9998V43.3998H144.729C145.124 43.3998 145.452 43.4638 145.713 43.5918C145.975 43.7145 146.169 43.8851 146.297 44.1038C146.431 44.3171 146.497 44.5598 146.497 44.8318C146.497 45.1145 146.433 45.3518 146.305 45.5438C146.183 45.7358 146.02 45.8851 145.817 45.9918C145.62 46.0931 145.407 46.1518 145.177 46.1678L145.297 46.0878C145.543 46.0931 145.764 46.1598 145.961 46.2878C146.164 46.4105 146.324 46.5758 146.441 46.7838C146.564 46.9918 146.625 47.2211 146.625 47.4718C146.625 47.7598 146.553 48.0211 146.409 48.2558C146.271 48.4851 146.065 48.6665 145.793 48.7998C145.527 48.9331 145.196 48.9998 144.801 48.9998H142.657ZM143.457 48.3358H144.697C145.044 48.3358 145.316 48.2558 145.513 48.0958C145.711 47.9305 145.809 47.6985 145.809 47.3998C145.809 47.1065 145.708 46.8718 145.505 46.6958C145.303 46.5198 145.028 46.4318 144.681 46.4318H143.457V48.3358ZM143.457 45.8158H144.641C144.977 45.8158 145.233 45.7385 145.409 45.5838C145.585 45.4238 145.673 45.2051 145.673 44.9278C145.673 44.6611 145.585 44.4505 145.409 44.2958C145.233 44.1358 144.972 44.0558 144.625 44.0558H143.457V45.8158ZM154.835 49.0958C154.445 49.0958 154.091 49.0185 153.771 48.8638C153.451 48.7038 153.195 48.4638 153.003 48.1438C152.816 47.8185 152.723 47.4051 152.723 46.9038V43.3998H153.523V46.9118C153.523 47.2478 153.576 47.5251 153.683 47.7438C153.795 47.9571 153.952 48.1171 154.155 48.2238C154.357 48.3251 154.589 48.3758 154.851 48.3758C155.123 48.3758 155.357 48.3251 155.555 48.2238C155.752 48.1171 155.904 47.9571 156.011 47.7438C156.123 47.5251 156.179 47.2478 156.179 46.9118V43.3998H156.979V46.9038C156.979 47.4051 156.883 47.8185 156.691 48.1438C156.499 48.4638 156.24 48.7038 155.915 48.8638C155.595 49.0185 155.235 49.0958 154.835 49.0958ZM163.307 48.9998V43.3998H164.107V48.9998H163.307ZM170.523 48.9998V43.3998H171.323V48.3678H173.883V48.9998H170.523ZM180.059 48.9998V43.3998H181.571C182.222 43.3998 182.758 43.5145 183.179 43.7438C183.606 43.9731 183.92 44.2985 184.123 44.7198C184.331 45.1358 184.435 45.6318 184.435 46.2078C184.435 46.7838 184.331 47.2798 184.123 47.6958C183.92 48.1118 183.606 48.4345 183.179 48.6638C182.758 48.8878 182.222 48.9998 181.571 48.9998H180.059ZM180.859 48.3278H181.539C182.051 48.3278 182.459 48.2425 182.763 48.0718C183.067 47.9011 183.283 47.6585 183.411 47.3438C183.544 47.0238 183.611 46.6451 183.611 46.2078C183.611 45.7651 183.544 45.3838 183.411 45.0638C183.283 44.7438 183.067 44.4985 182.763 44.3278C182.459 44.1571 182.051 44.0718 181.539 44.0718H180.859V48.3278Z" fill="#02000F"/>
</svg>
