<svg width="186" height="75" viewBox="0 0 186 75" fill="none" xmlns="http://www.w3.org/2000/svg">
<g clip-path="url(#clip0_767_3557)">
<path d="M90.1807 32.9998V18.9998H93.4007L97.6807 27.7398L101.921 18.9998H105.141V32.9998H102.441V23.5998L98.7407 31.0398H96.6007L92.8807 23.5998V32.9998H90.1807ZM114.356 33.2398C112.996 33.2398 111.796 32.9331 110.756 32.3198C109.716 31.7065 108.903 30.8598 108.316 29.7798C107.729 28.6865 107.436 27.4265 107.436 25.9998C107.436 24.5731 107.729 23.3198 108.316 22.2398C108.903 21.1465 109.716 20.2931 110.756 19.6798C111.796 19.0665 112.996 18.7598 114.356 18.7598C115.729 18.7598 116.936 19.0665 117.976 19.6798C119.016 20.2931 119.823 21.1465 120.396 22.2398C120.983 23.3198 121.276 24.5731 121.276 25.9998C121.276 27.4265 120.983 28.6865 120.396 29.7798C119.823 30.8598 119.016 31.7065 117.976 32.3198C116.936 32.9331 115.729 33.2398 114.356 33.2398ZM114.356 30.8198C115.209 30.8198 115.943 30.6265 116.556 30.2398C117.183 29.8398 117.669 29.2798 118.016 28.5598C118.363 27.8398 118.536 26.9865 118.536 25.9998C118.536 24.9998 118.363 24.1465 118.016 23.4398C117.669 22.7198 117.183 22.1665 116.556 21.7798C115.943 21.3931 115.209 21.1998 114.356 21.1998C113.516 21.1998 112.783 21.3931 112.156 21.7798C111.529 22.1665 111.043 22.7198 110.696 23.4398C110.349 24.1465 110.176 24.9998 110.176 25.9998C110.176 26.9865 110.349 27.8398 110.696 28.5598C111.043 29.2798 111.529 29.8398 112.156 30.2398C112.783 30.6265 113.516 30.8198 114.356 30.8198ZM123.579 32.9998V18.9998H128.259C129.886 18.9998 131.226 19.2931 132.279 19.8798C133.346 20.4531 134.133 21.2665 134.639 22.3198C135.159 23.3598 135.419 24.5865 135.419 25.9998C135.419 27.4131 135.159 28.6465 134.639 29.6998C134.133 30.7398 133.353 31.5531 132.299 32.1398C131.246 32.7131 129.899 32.9998 128.259 32.9998H123.579ZM126.279 30.6798H128.119C129.266 30.6798 130.166 30.4931 130.819 30.1198C131.486 29.7465 131.959 29.2131 132.239 28.5198C132.519 27.8131 132.659 26.9731 132.659 25.9998C132.659 25.0131 132.519 24.1731 132.239 23.4798C131.959 22.7731 131.486 22.2331 130.819 21.8598C130.166 21.4865 129.266 21.2998 128.119 21.2998H126.279V30.6798ZM137.72 32.9998V18.9998H146.92V21.1798H140.42V24.8398H146.32V26.9398H140.42V30.8198H146.92V32.9998H137.72ZM149.38 32.9998V18.9998H154.6C155.734 18.9998 156.667 19.1931 157.4 19.5798C158.134 19.9665 158.68 20.4865 159.04 21.1398C159.4 21.7798 159.58 22.4931 159.58 23.2798C159.58 24.0265 159.407 24.7265 159.06 25.3798C158.714 26.0198 158.167 26.5398 157.42 26.9398C156.687 27.3265 155.74 27.5198 154.58 27.5198H152.08V32.9998H149.38ZM156.64 32.9998L153.76 26.8398H156.68L159.72 32.9998H156.64ZM152.08 25.5598H154.44C155.254 25.5598 155.854 25.3598 156.24 24.9598C156.627 24.5598 156.82 24.0331 156.82 23.3798C156.82 22.7265 156.627 22.2131 156.24 21.8398C155.867 21.4531 155.267 21.2598 154.44 21.2598H152.08V25.5598ZM161.997 32.9998V18.9998H164.697L171.137 28.6598V18.9998H173.837V32.9998H171.137L164.697 23.3598V32.9998H161.997Z" fill="#02000F"/>
<path d="M89.0322 54.9997L91.0882 49.3997H91.9602L94.0162 54.9997H93.1602L91.5202 50.3597L89.8722 54.9997H89.0322ZM89.9602 53.6157L90.1842 52.9757H92.8162L93.0402 53.6157H89.9602ZM98.3657 54.9997V49.3997H100.262C100.704 49.3997 101.067 49.4744 101.35 49.6237C101.632 49.773 101.84 49.973 101.974 50.2237C102.112 50.469 102.182 50.749 102.182 51.0637C102.182 51.3624 102.112 51.6397 101.974 51.8957C101.84 52.1464 101.63 52.349 101.342 52.5037C101.054 52.653 100.686 52.7277 100.238 52.7277H99.1657V54.9997H98.3657ZM101.31 54.9997L100.102 52.5117H100.982L102.238 54.9997H101.31ZM99.1657 52.1197H100.214C100.608 52.1197 100.896 52.0237 101.078 51.8317C101.264 51.6344 101.358 51.3837 101.358 51.0797C101.358 50.7704 101.267 50.525 101.086 50.3437C100.904 50.1624 100.611 50.0717 100.206 50.0717H99.1657V52.1197ZM109.16 55.0957C108.627 55.0957 108.165 54.9757 107.776 54.7357C107.387 54.4904 107.085 54.1517 106.872 53.7197C106.664 53.2824 106.56 52.7757 106.56 52.1997C106.56 51.629 106.664 51.125 106.872 50.6877C107.085 50.2504 107.387 49.9117 107.776 49.6717C108.165 49.4264 108.627 49.3037 109.16 49.3037C109.805 49.3037 110.331 49.461 110.736 49.7757C111.141 50.0904 111.397 50.533 111.504 51.1037H110.64C110.555 50.773 110.389 50.509 110.144 50.3117C109.899 50.1144 109.568 50.0157 109.152 50.0157C108.789 50.0157 108.475 50.1037 108.208 50.2797C107.941 50.4557 107.736 50.7064 107.592 51.0317C107.448 51.357 107.376 51.7464 107.376 52.1997C107.376 52.653 107.448 53.045 107.592 53.3757C107.736 53.701 107.941 53.9517 108.208 54.1277C108.475 54.2984 108.789 54.3837 109.152 54.3837C109.568 54.3837 109.899 54.2904 110.144 54.1037C110.389 53.9117 110.555 53.653 110.64 53.3277H111.504C111.397 53.8824 111.141 54.317 110.736 54.6317C110.331 54.941 109.805 55.0957 109.16 55.0957ZM119.583 54.9997V49.3997H120.383V54.9997H119.583ZM116.023 54.9997V49.3997H116.823V54.9997H116.023ZM116.687 52.4717V51.8157H119.759V52.4717H116.687ZM125.121 54.9997V49.3997H125.921V54.9997H125.121ZM131.952 54.9997V50.0557H130.296V49.3997H134.416V50.0557H132.752V54.9997H131.952ZM138.786 54.9997V49.3997H142.322V50.0557H139.586V51.8477H142.082V52.4877H139.586V54.3437H142.322V54.9997H138.786ZM149.299 55.0957C148.766 55.0957 148.305 54.9757 147.915 54.7357C147.526 54.4904 147.225 54.1517 147.011 53.7197C146.803 53.2824 146.699 52.7757 146.699 52.1997C146.699 51.629 146.803 51.125 147.011 50.6877C147.225 50.2504 147.526 49.9117 147.915 49.6717C148.305 49.4264 148.766 49.3037 149.299 49.3037C149.945 49.3037 150.47 49.461 150.875 49.7757C151.281 50.0904 151.537 50.533 151.643 51.1037H150.779C150.694 50.773 150.529 50.509 150.283 50.3117C150.038 50.1144 149.707 50.0157 149.291 50.0157C148.929 50.0157 148.614 50.1037 148.347 50.2797C148.081 50.4557 147.875 50.7064 147.731 51.0317C147.587 51.357 147.515 51.7464 147.515 52.1997C147.515 52.653 147.587 53.045 147.731 53.3757C147.875 53.701 148.081 53.9517 148.347 54.1277C148.614 54.2984 148.929 54.3837 149.291 54.3837C149.707 54.3837 150.038 54.2904 150.283 54.1037C150.529 53.9117 150.694 53.653 150.779 53.3277H151.643C151.537 53.8824 151.281 54.317 150.875 54.6317C150.47 54.941 149.945 55.0957 149.299 55.0957ZM157.348 54.9997V50.0557H155.692V49.3997H159.812V50.0557H158.148V54.9997H157.348ZM166.214 55.0957C165.824 55.0957 165.47 55.0184 165.15 54.8637C164.83 54.7037 164.574 54.4637 164.382 54.1437C164.195 53.8184 164.102 53.405 164.102 52.9037V49.3997H164.902V52.9117C164.902 53.2477 164.955 53.525 165.062 53.7437C165.174 53.957 165.331 54.117 165.534 54.2237C165.736 54.325 165.968 54.3757 166.23 54.3757C166.502 54.3757 166.736 54.325 166.934 54.2237C167.131 54.117 167.283 53.957 167.39 53.7437C167.502 53.525 167.558 53.2477 167.558 52.9117V49.3997H168.358V52.9037C168.358 53.405 168.262 53.8184 168.07 54.1437C167.878 54.4637 167.619 54.7037 167.294 54.8637C166.974 55.0184 166.614 55.0957 166.214 55.0957ZM173.006 54.9997V49.3997H174.902C175.345 49.3997 175.708 49.4744 175.99 49.6237C176.273 49.773 176.481 49.973 176.614 50.2237C176.753 50.469 176.822 50.749 176.822 51.0637C176.822 51.3624 176.753 51.6397 176.614 51.8957C176.481 52.1464 176.27 52.349 175.982 52.5037C175.694 52.653 175.326 52.7277 174.878 52.7277H173.806V54.9997H173.006ZM175.95 54.9997L174.742 52.5117H175.622L176.878 54.9997H175.95ZM173.806 52.1197H174.854C175.249 52.1197 175.537 52.0237 175.718 51.8317C175.905 51.6344 175.998 51.3837 175.998 51.0797C175.998 50.7704 175.908 50.525 175.726 50.3437C175.545 50.1624 175.252 50.0717 174.846 50.0717H173.806V52.1197ZM181.417 54.9997V49.3997H184.953V50.0557H182.217V51.8477H184.713V52.4877H182.217V54.3437H184.953V54.9997H181.417Z" fill="#02000F"/>
<path d="M1.7998 73.5V26.2961H49.0037V73.5H1.7998ZM1.7998 73.5L21.9309 53.3689M21.9309 53.3689V20.7427L44.8386 2L67.7464 20.7427V53.3689H21.9309Z" stroke="#02000F" stroke-width="2"/>
</g>
<defs>
<clipPath id="clip0_767_3557">
<rect width="185" height="75" fill="white" transform="translate(0.799805)"/>
</clipPath>
</defs>
</svg>
