<svg width="194" height="101" viewBox="0 0 194 101" fill="none" xmlns="http://www.w3.org/2000/svg">
<path d="M2.39893 87.5986H38.4037V48.1296L28.1387 54.9634V75.0827H64.3989V33.6773H39.8864V14.4023L2.39893 33.6773V87.5986Z" stroke="#02000F" stroke-width="2" stroke-miterlimit="10"/>
<path d="M85.3994 34.24C84.7124 34.24 84.1194 34.09 83.6194 33.79C83.1264 33.4833 82.7424 33.06 82.4694 32.52C82.2024 31.9733 82.0694 31.34 82.0694 30.62C82.0694 29.9067 82.2024 29.2767 82.4694 28.73C82.7424 28.1833 83.1264 27.76 83.6194 27.46C84.1194 27.1533 84.7124 27 85.3994 27C86.2194 27 86.8824 27.1967 87.3894 27.59C87.9024 27.9833 88.2294 28.5367 88.3694 29.25H87.2694C87.1694 28.8367 86.9624 28.5067 86.6494 28.26C86.3424 28.0133 85.9264 27.89 85.3994 27.89C84.9264 27.89 84.5164 28 84.1694 28.22C83.8224 28.44 83.5564 28.7533 83.3694 29.16C83.1824 29.5667 83.0894 30.0533 83.0894 30.62C83.0894 31.1867 83.1824 31.6767 83.3694 32.09C83.5564 32.4967 83.8224 32.81 84.1694 33.03C84.5164 33.2433 84.9264 33.35 85.3994 33.35C85.9264 33.35 86.3424 33.2333 86.6494 33C86.9624 32.76 87.1694 32.4367 87.2694 32.03H88.3694C88.2294 32.7233 87.9024 33.2667 87.3894 33.66C86.8824 34.0467 86.2194 34.24 85.3994 34.24ZM96.0654 34.12V27.12H98.4354C98.9894 27.12 99.4424 27.2133 99.7954 27.4C100.149 27.5867 100.409 27.8367 100.575 28.15C100.749 28.4567 100.835 28.8067 100.835 29.2C100.835 29.5733 100.749 29.92 100.575 30.24C100.409 30.5533 100.145 30.8067 99.7854 31C99.4254 31.1867 98.9654 31.28 98.4054 31.28H97.0654V34.12H96.0654ZM99.7454 34.12L98.2354 31.01H99.3354L100.905 34.12H99.7454ZM97.0654 30.52H98.3654C98.8594 30.52 99.2224 30.4 99.4554 30.16C99.6894 29.9133 99.8054 29.6 99.8054 29.22C99.8054 28.8333 99.6924 28.5267 99.4654 28.3C99.2394 28.0733 98.8724 27.96 98.3654 27.96H97.0654V30.52ZM108.63 34.12V27.12H113.05V27.94H109.63V30.18H112.75V30.98H109.63V33.3H113.05V34.12H108.63ZM120.393 34.12L122.963 27.12H124.053L126.623 34.12H125.553L123.503 28.32L121.443 34.12H120.393ZM121.553 32.39L121.833 31.59H125.123L125.403 32.39H121.553ZM134.979 34.12V27.94H132.909V27.12H138.059V27.94H135.979V34.12H134.979ZM145.571 34.12V27.12H146.571V34.12H145.571ZM156.602 34.12L154.002 27.12H155.082L157.202 33.08L159.342 27.12H160.402L157.802 34.12H156.602ZM167.829 34.12V27.12H172.249V27.94H168.829V30.18H171.949V30.98H168.829V33.3H172.249V34.12H167.829ZM82.8414 54.12V41.52H88.0074C88.8834 41.52 89.6214 41.658 90.2214 41.934C90.8214 42.21 91.2714 42.594 91.5714 43.086C91.8834 43.566 92.0394 44.124 92.0394 44.76C92.0394 45.396 91.9014 45.93 91.6254 46.362C91.3494 46.794 90.9834 47.13 90.5274 47.37C90.0834 47.598 89.5914 47.73 89.0514 47.766L89.3394 47.568C89.9154 47.592 90.4254 47.748 90.8694 48.036C91.3254 48.312 91.6794 48.684 91.9314 49.152C92.1954 49.62 92.3274 50.13 92.3274 50.682C92.3274 51.354 92.1654 51.948 91.8414 52.464C91.5174 52.98 91.0494 53.388 90.4374 53.688C89.8254 53.976 89.0754 54.12 88.1874 54.12H82.8414ZM85.2714 52.14H87.7914C88.4514 52.14 88.9614 51.99 89.3214 51.69C89.6814 51.39 89.8614 50.958 89.8614 50.394C89.8614 49.83 89.6754 49.392 89.3034 49.08C88.9314 48.756 88.4154 48.594 87.7554 48.594H85.2714V52.14ZM85.2714 46.776H87.6114C88.2474 46.776 88.7274 46.632 89.0514 46.344C89.3874 46.056 89.5554 45.648 89.5554 45.12C89.5554 44.604 89.3874 44.202 89.0514 43.914C88.7274 43.614 88.2414 43.464 87.5934 43.464H85.2714V46.776ZM102.798 54.336C101.874 54.336 101.034 54.15 100.278 53.778C99.5224 53.406 98.9224 52.848 98.4784 52.104C98.0344 51.36 97.8124 50.412 97.8124 49.26V41.52H100.242V49.278C100.242 49.902 100.344 50.43 100.548 50.862C100.752 51.282 101.046 51.594 101.43 51.798C101.826 52.002 102.294 52.104 102.834 52.104C103.386 52.104 103.854 52.002 104.238 51.798C104.634 51.594 104.934 51.282 105.138 50.862C105.342 50.43 105.444 49.902 105.444 49.278V41.52H107.874V49.26C107.874 50.412 107.646 51.36 107.19 52.104C106.734 52.848 106.116 53.406 105.336 53.778C104.568 54.15 103.722 54.336 102.798 54.336ZM113.842 54.12V41.52H116.272V54.12H113.842ZM122.346 54.12V41.52H124.776V52.23H130.302V54.12H122.346ZM135.983 54.12V41.52H140.195C141.659 41.52 142.865 41.784 143.813 42.312C144.773 42.828 145.481 43.56 145.937 44.508C146.405 45.444 146.639 46.548 146.639 47.82C146.639 49.092 146.405 50.202 145.937 51.15C145.481 52.086 144.779 52.818 143.831 53.346C142.883 53.862 141.671 54.12 140.195 54.12H135.983ZM138.413 52.032H140.069C141.101 52.032 141.911 51.864 142.499 51.528C143.099 51.192 143.525 50.712 143.777 50.088C144.029 49.452 144.155 48.696 144.155 47.82C144.155 46.932 144.029 46.176 143.777 45.552C143.525 44.916 143.099 44.43 142.499 44.094C141.911 43.758 141.101 43.59 140.069 43.59H138.413V52.032ZM157.188 54.336C156.264 54.336 155.424 54.15 154.668 53.778C153.912 53.406 153.312 52.848 152.868 52.104C152.424 51.36 152.202 50.412 152.202 49.26V41.52H154.632V49.278C154.632 49.902 154.734 50.43 154.938 50.862C155.142 51.282 155.436 51.594 155.82 51.798C156.216 52.002 156.684 52.104 157.224 52.104C157.776 52.104 158.244 52.002 158.628 51.798C159.024 51.594 159.324 51.282 159.528 50.862C159.732 50.43 159.834 49.902 159.834 49.278V41.52H162.264V49.26C162.264 50.412 162.036 51.36 161.58 52.104C161.124 52.848 160.506 53.406 159.726 53.778C158.958 54.15 158.112 54.336 157.188 54.336ZM168.232 54.12V41.52H172.93C173.95 41.52 174.79 41.694 175.45 42.042C176.11 42.39 176.602 42.858 176.926 43.446C177.25 44.022 177.412 44.664 177.412 45.372C177.412 46.044 177.256 46.674 176.944 47.262C176.632 47.838 176.14 48.306 175.468 48.666C174.808 49.014 173.956 49.188 172.912 49.188H170.662V54.12H168.232ZM174.766 54.12L172.174 48.576H174.802L177.538 54.12H174.766ZM170.662 47.424H172.786C173.518 47.424 174.058 47.244 174.406 46.884C174.754 46.524 174.928 46.05 174.928 45.462C174.928 44.874 174.754 44.412 174.406 44.076C174.07 43.728 173.53 43.554 172.786 43.554H170.662V47.424ZM187.525 54.336C186.613 54.336 185.797 54.18 185.077 53.868C184.369 53.556 183.805 53.1 183.385 52.5C182.977 51.9 182.767 51.174 182.755 50.322H185.329C185.341 50.694 185.437 51.03 185.617 51.33C185.797 51.63 186.043 51.87 186.355 52.05C186.679 52.218 187.063 52.302 187.507 52.302C187.891 52.302 188.221 52.242 188.497 52.122C188.785 51.99 189.007 51.81 189.163 51.582C189.319 51.354 189.397 51.084 189.397 50.772C189.397 50.412 189.307 50.112 189.127 49.872C188.959 49.632 188.719 49.428 188.407 49.26C188.107 49.092 187.753 48.942 187.345 48.81C186.949 48.666 186.529 48.516 186.085 48.36C185.089 48.036 184.327 47.604 183.799 47.064C183.283 46.524 183.025 45.81 183.025 44.922C183.025 44.166 183.205 43.518 183.565 42.978C183.937 42.438 184.447 42.024 185.095 41.736C185.743 41.448 186.481 41.304 187.309 41.304C188.161 41.304 188.905 41.454 189.541 41.754C190.189 42.042 190.699 42.462 191.071 43.014C191.455 43.566 191.653 44.214 191.665 44.958H189.073C189.061 44.682 188.977 44.424 188.821 44.184C188.677 43.932 188.473 43.734 188.209 43.59C187.945 43.434 187.633 43.356 187.273 43.356C186.961 43.344 186.673 43.392 186.409 43.5C186.157 43.608 185.953 43.77 185.797 43.986C185.653 44.19 185.581 44.448 185.581 44.76C185.581 45.06 185.653 45.312 185.797 45.516C185.953 45.72 186.163 45.9 186.427 46.056C186.691 46.2 187.003 46.338 187.363 46.47C187.723 46.59 188.113 46.716 188.533 46.848C189.157 47.064 189.733 47.322 190.261 47.622C190.789 47.91 191.209 48.288 191.521 48.756C191.833 49.224 191.989 49.842 191.989 50.61C191.989 51.27 191.815 51.882 191.467 52.446C191.119 53.01 190.615 53.466 189.955 53.814C189.307 54.162 188.497 54.336 187.525 54.336ZM81.8794 74.12L84.4494 67.12H85.5394L88.1094 74.12H87.0394L84.9894 68.32L82.9294 74.12H81.8794ZM83.0394 72.39L83.3194 71.59H86.6094L86.8894 72.39H83.0394ZM95.6064 74.12V67.12H97.9764C98.5304 67.12 98.9834 67.2133 99.3364 67.4C99.6904 67.5867 99.9504 67.8367 100.116 68.15C100.29 68.4567 100.376 68.8067 100.376 69.2C100.376 69.5733 100.29 69.92 100.116 70.24C99.9504 70.5533 99.6864 70.8067 99.3264 71C98.9664 71.1867 98.5064 71.28 97.9464 71.28H96.6064V74.12H95.6064ZM99.2864 74.12L97.7764 71.01H98.8764L100.446 74.12H99.2864ZM96.6064 70.52H97.9064C98.4004 70.52 98.7634 70.4 98.9964 70.16C99.2304 69.9133 99.3464 69.6 99.3464 69.22C99.3464 68.8333 99.2334 68.5267 99.0064 68.3C98.7804 68.0733 98.4134 67.96 97.9064 67.96H96.6064V70.52ZM111.241 74.24C110.554 74.24 109.961 74.09 109.461 73.79C108.967 73.4833 108.584 73.06 108.311 72.52C108.044 71.9733 107.911 71.34 107.911 70.62C107.911 69.9067 108.044 69.2767 108.311 68.73C108.584 68.1833 108.967 67.76 109.461 67.46C109.961 67.1533 110.554 67 111.241 67C112.061 67 112.724 67.1967 113.231 67.59C113.744 67.9833 114.071 68.5367 114.211 69.25H113.111C113.011 68.8367 112.804 68.5067 112.491 68.26C112.184 68.0133 111.767 67.89 111.241 67.89C110.767 67.89 110.357 68 110.011 68.22C109.664 68.44 109.397 68.7533 109.211 69.16C109.024 69.5667 108.931 70.0533 108.931 70.62C108.931 71.1867 109.024 71.6767 109.211 72.09C109.397 72.4967 109.664 72.81 110.011 73.03C110.357 73.2433 110.767 73.35 111.241 73.35C111.767 73.35 112.184 73.2333 112.491 73C112.804 72.76 113.011 72.4367 113.111 72.03H114.211C114.071 72.7233 113.744 73.2667 113.231 73.66C112.724 74.0467 112.061 74.24 111.241 74.24ZM126.357 74.12V67.12H127.357V74.12H126.357ZM121.907 74.12V67.12H122.907V74.12H121.907ZM122.737 70.96V70.14H126.577V70.96H122.737ZM135.321 74.12V67.12H136.321V74.12H135.321ZM145.912 74.12V67.94H143.842V67.12H148.992V67.94H146.912V74.12H145.912ZM156.505 74.12V67.12H160.925V67.94H157.505V70.18H160.625V70.98H157.505V73.3H160.925V74.12H156.505ZM171.788 74.24C171.101 74.24 170.508 74.09 170.008 73.79C169.514 73.4833 169.131 73.06 168.858 72.52C168.591 71.9733 168.458 71.34 168.458 70.62C168.458 69.9067 168.591 69.2767 168.858 68.73C169.131 68.1833 169.514 67.76 170.008 67.46C170.508 67.1533 171.101 67 171.788 67C172.608 67 173.271 67.1967 173.778 67.59C174.291 67.9833 174.618 68.5367 174.758 69.25H173.658C173.558 68.8367 173.351 68.5067 173.038 68.26C172.731 68.0133 172.314 67.89 171.788 67.89C171.314 67.89 170.904 68 170.558 68.22C170.211 68.44 169.944 68.7533 169.758 69.16C169.571 69.5667 169.478 70.0533 169.478 70.62C169.478 71.1867 169.571 71.6767 169.758 72.09C169.944 72.4967 170.211 72.81 170.558 73.03C170.904 73.2433 171.314 73.35 171.788 73.35C172.314 73.35 172.731 73.2333 173.038 73C173.351 72.76 173.558 72.4367 173.658 72.03H174.758C174.618 72.7233 174.291 73.2667 173.778 73.66C173.271 74.0467 172.608 74.24 171.788 74.24ZM183.947 74.12V67.94H181.877V67.12H187.027V67.94H184.947V74.12H183.947Z" fill="#02000F"/>
</svg>
